<svg width="832" height="589" viewBox="0 0 832 589" fill="none" xmlns="http://www.w3.org/2000/svg">
<g clip-path="url(#clip0)">
<path opacity="0.18" d="M376.012 20.9028L346.377 13.3657C303.105 2.7133 256.543 -7.78834 214.928 8.16512C181.124 21.2042 156.06 49.7446 132.403 77.0288C101.286 113.056 69.9433 149.41 46.7376 191.014C-7.98653 289.147 -16.1989 428.733 30.2877 530.81C48.797 571.485 73.5848 610.98 110.654 636.103C149.254 662.307 198.077 670.347 244.513 666C290.949 661.654 335.552 645.776 378.247 627.436C425.964 606.985 476.519 582.741 527.451 592.69C554.047 597.865 577.881 612.035 601.79 624.773C643.831 647.183 688.786 666.101 736.252 670.221C783.718 674.341 834.198 662.081 868.579 629.018C902.006 596.81 916.296 549.653 924.233 503.928C932.671 456.458 934.555 408.054 929.833 360.071C925.312 313.492 944.902 269.5 937.166 221.69C931.064 184.231 911.5 147.927 879.655 127.276C840.15 101.675 789.62 103.559 742.555 104.665C702.573 105.603 662.591 105.335 622.609 103.861C598.098 102.981 573.26 101.549 549.954 93.8113C523.332 85.0432 500.026 68.6878 475.088 55.8496C443.871 39.9213 410.117 29.6458 376.012 20.9028Z" fill="#00B808"/>
<path d="M437.19 227.896L459.793 154.083C462.707 139.938 463.987 123.256 465.595 108.86C466.395 104.159 466.352 99.3523 465.469 94.6656C464.013 88.5606 459.919 81.9531 463.184 76.5767C466.449 71.2002 475.515 72.0795 481.065 75.7978C488.725 80.8225 493.848 92.3291 487.771 99.2632C485.882 100.885 484.111 102.64 482.472 104.514C480.387 107.73 480.965 112.051 481.367 115.744C483.225 133.331 479.558 150.917 475.942 168.504L465.896 216.59C463.385 228.298 459.517 241.714 448.316 246.06C447.499 246.459 446.608 246.683 445.7 246.717C444.792 246.752 443.887 246.597 443.042 246.261C442.037 245.686 441.177 244.886 440.531 243.925C437.944 239.83 437.467 232.795 437.19 227.896Z" fill="#C1A7A7"/>
<path d="M437.19 227.896L459.793 154.083C462.707 139.938 463.987 123.256 465.595 108.86C466.395 104.159 466.352 99.3523 465.469 94.6656C464.013 88.5606 459.919 81.9531 463.184 76.5767C466.449 71.2002 475.515 72.0795 481.065 75.7978C488.725 80.8225 493.848 92.3291 487.771 99.2632C485.882 100.885 484.111 102.64 482.472 104.514C480.387 107.73 480.965 112.051 481.367 115.744C483.225 133.331 479.558 150.917 475.942 168.504L465.896 216.59C463.385 228.298 459.517 241.714 448.316 246.06C447.499 246.459 446.608 246.683 445.7 246.717C444.792 246.752 443.887 246.597 443.042 246.261C442.037 245.686 441.177 244.886 440.531 243.925C437.944 239.83 437.467 232.795 437.19 227.896Z" fill="url(#paint0_linear)"/>
<path d="M567.283 416.046C567.499 430.188 564.928 444.235 559.718 457.383C554.507 470.532 546.759 482.525 536.915 492.678C527.071 502.831 515.325 510.945 502.347 516.557C489.368 522.168 475.412 525.168 461.275 525.384C447.138 525.6 433.097 523.028 419.953 517.816C406.809 512.604 394.821 504.853 384.671 495.005C374.522 485.158 366.411 473.407 360.801 460.424C355.192 447.441 352.193 433.48 351.977 419.337C351.977 418.232 351.977 417.152 351.977 416.046C351.923 413.295 352.032 410.544 352.304 407.806C354.387 380.006 367.167 354.098 387.954 335.532C408.742 316.965 435.917 307.187 463.764 308.255C491.611 309.322 517.959 321.152 537.265 341.255C556.572 361.358 567.332 388.169 567.283 416.046V416.046Z" fill="#00B808"/>
<path opacity="0.14" d="M414.387 464.962C410.82 480.538 415.165 497.12 411.875 512.697C387.004 500.408 367.827 479 358.331 452.928C357.803 447.572 357.93 442.173 358.708 436.849C359.436 431.12 360.491 425.191 358.884 419.639C357.328 415.374 355.07 411.4 352.203 407.881C353.393 392.136 358.038 376.847 365.809 363.103C373.579 349.36 384.283 337.498 397.158 328.365C397.284 329.088 397.284 329.828 397.158 330.551L392.537 351.052C393.466 357.13 393.466 363.314 392.537 369.392C392.044 372.429 390.889 375.321 389.152 377.861C387.416 380.401 385.142 382.528 382.491 384.089C380.506 384.917 378.576 385.874 376.715 386.953C374.915 388.403 373.421 390.196 372.32 392.229C369.337 396.375 367.117 401.02 365.765 405.947C365.099 408.408 365.06 410.996 365.653 413.476C366.245 415.956 367.449 418.247 369.156 420.141L399.293 414.313C402.432 413.71 406.224 413.283 408.384 415.644C410.896 418.458 409.339 422.98 409.916 426.774C410.619 431.623 414.939 435.115 416.948 439.637C420.59 447.501 416.345 456.47 414.387 464.962Z" fill="#020202"/>
<path opacity="0.14" d="M387.062 340.55C382.768 345.575 378.322 350.926 377.016 357.383C376.61 358.769 376.61 360.243 377.016 361.629C377.595 362.722 378.397 363.681 379.37 364.442C380.344 365.204 381.467 365.752 382.667 366.05C392.875 369.971 403.758 371.833 414.688 371.527C414.06 377.683 413.784 384.818 418.279 389.114C419.979 390.598 421.949 391.741 424.081 392.48C430.849 395.146 438.011 396.674 445.277 397.003C451.355 397.279 457.508 396.676 463.586 397.354C471.089 398.176 478.266 400.871 484.456 405.193C486.044 406.152 487.352 407.512 488.248 409.137C488.905 410.893 489.171 412.77 489.026 414.639C489.07 421.249 489.913 427.829 491.538 434.236C493.17 440.466 495.807 446.797 501.031 450.591C503.796 452.373 506.809 453.736 509.972 454.636L531.445 461.972C531.964 462.209 532.548 462.262 533.102 462.123C533.631 461.839 534.041 461.376 534.257 460.816C536.643 456.143 539.004 450.968 538.024 445.742C537.045 440.517 533.002 436.723 531.118 431.924C528.029 424.387 530.44 415.443 527.903 407.655C526.097 402.935 523.236 398.69 519.54 395.244C513.332 389.116 506.729 383.401 499.775 378.135C488.725 369.392 477.524 360.548 464.615 354.72C459.442 352.358 453.665 350.223 450.677 345.399C447.085 339.595 448.643 331.631 444.775 326.003C441.611 321.431 435.658 319.672 430.108 319.371C420.922 319.095 411.823 321.226 403.713 325.551C396.405 329.244 392.386 334.294 387.062 340.55Z" fill="#020202"/>
<path opacity="0.14" d="M567.283 416.046C567.302 432.333 563.62 448.412 556.515 463.067C549.411 477.721 539.068 490.569 526.271 500.637C524.786 499.663 523.513 498.398 522.529 496.919C519.314 492.045 520.369 484.357 525.568 481.594C523.759 482.548 516.652 480.212 514.517 479.885L503.442 478.177C498.143 477.348 488.876 477.699 485.862 472.348C485.521 471.606 485.109 470.899 484.631 470.238C483.971 469.566 483.186 469.028 482.321 468.655C478.981 467.022 475.088 465.188 474.284 461.545C473.732 458.882 475.063 455.867 473.681 453.505C473.254 452.777 472.601 452.199 472.175 451.47C471.709 450.374 471.534 449.176 471.666 447.993C471.798 446.809 472.233 445.679 472.928 444.712C477.599 436.547 487.268 432.577 496.561 431.02C505.853 429.462 515.447 429.688 524.488 427.075C530.189 425.417 535.613 422.654 541.49 421.85C544.73 421.397 548.798 421.046 549.979 418.006C550.632 416.272 549.979 414.262 550.657 412.529C550.933 411.775 551.435 411.122 551.712 410.368C551.892 409.812 551.96 409.226 551.914 408.644C551.868 408.061 551.707 407.494 551.441 406.973C551.175 406.453 550.809 405.99 550.364 405.611C549.92 405.233 549.404 404.945 548.849 404.766C548.569 404.683 548.284 404.624 547.995 404.59C548.748 402.58 549.351 399.992 547.769 398.56C547.212 398.152 546.565 397.884 545.883 397.779C545.201 397.674 544.504 397.735 543.851 397.957C539.983 398.912 537.196 402.178 533.956 404.489C523.207 412.026 508.465 409.514 499.499 400.419C498.045 399.135 497.004 397.447 496.51 395.57C496.37 393.968 496.732 392.362 497.547 390.975C498.362 389.588 499.588 388.49 501.056 387.832C503.999 386.575 507.174 385.95 510.373 385.998C509.193 378.185 507.862 370.346 506.782 362.558C488.901 367.357 481.668 350.298 479.156 336.128C476.645 321.958 486.691 316.883 499.65 316.029C519.62 324.035 536.736 337.841 548.791 355.667C560.845 373.494 567.286 394.524 567.283 416.046Z" fill="#020202"/>
<path d="M488.047 463.831C488.047 469.76 497.616 475.363 502.287 476.745C504.239 477.149 506.143 477.764 507.963 478.579C508.86 479.023 509.614 479.711 510.138 480.564C510.662 481.417 510.936 482.401 510.926 483.402C510.725 485.136 509.319 486.543 508.942 488.226C508.738 489.704 508.919 491.21 509.47 492.598C511.253 498.351 518.335 501.919 520.068 507.672C529.862 506.692 534.283 507.521 543.977 505.888L552.064 500.713C547.995 493.176 543.952 485.488 539.858 477.85C538.3 474.613 536.37 471.569 534.107 468.781C531.434 466.013 528.412 463.605 525.116 461.62C516.61 456.087 507.76 451.103 498.62 446.697C499.851 447.4 488.047 462.299 488.047 463.831Z" fill="url(#paint1_linear)"/>
<path d="M493.773 436.924C492.769 440.19 491.864 444.034 493.773 446.772C494.706 447.924 495.941 448.794 497.339 449.285C498.969 450.082 500.789 450.403 502.593 450.212C504.397 450.021 506.11 449.325 507.536 448.204C509.041 446.544 510.103 444.53 510.625 442.35C513.163 434.378 514.995 426.198 516.1 417.905C516.301 417.148 516.301 416.351 516.1 415.594C515.673 414.793 514.993 414.157 514.166 413.785C509.821 411.448 503.015 409.564 500.579 414.765C497.39 421.573 495.933 429.814 493.773 436.924Z" fill="#C1A7A7"/>
<path d="M506.858 440.718C507.787 440.594 508.733 440.689 509.62 440.994C510.219 441.325 510.741 441.778 511.152 442.325L520.545 453.078C522.378 455.164 524.312 458.103 523.056 460.465C522.616 461.162 522.024 461.751 521.323 462.186C520.623 462.621 519.833 462.891 519.013 462.977C514.459 463.438 509.87 462.565 505.803 460.465C502.89 459.183 500.052 457.802 497.239 456.294C495.139 455.331 493.31 453.864 491.915 452.023C489.78 448.707 489.127 440.718 492.969 438.23C494.878 436.999 496.561 437.879 498.419 438.758C501.033 440.082 503.928 440.754 506.858 440.718Z" fill="#00B808"/>
<path d="M545.936 473.504C546.008 474.114 545.939 474.733 545.735 475.313C545.411 475.884 544.943 476.36 544.378 476.694C542.585 477.935 540.479 478.649 538.301 478.755C537.221 478.804 536.145 478.603 535.156 478.167C534.167 477.731 533.292 477.072 532.6 476.242C531.596 474.624 530.994 472.789 530.842 470.891C530.048 466.802 529.652 462.645 529.661 458.48C529.605 458.236 529.604 457.982 529.659 457.738C529.713 457.494 529.821 457.264 529.975 457.067C530.129 456.87 530.325 456.709 530.549 456.597C530.773 456.485 531.019 456.425 531.269 456.42C534.659 455.691 541.315 453.907 543.123 458.103C544.859 463.058 545.808 468.255 545.936 473.504V473.504Z" fill="#C1A7A7"/>
<path d="M560.276 473.077C563.178 473.223 566.045 473.781 568.79 474.735C570.171 475.22 571.439 475.983 572.514 476.977C573.59 477.97 574.45 479.174 575.043 480.513C575.59 481.848 575.652 483.333 575.219 484.709C574.286 486.709 572.637 488.287 570.598 489.131C560.925 494.385 549.962 496.789 538.979 496.065C536.152 496.161 533.401 495.141 531.319 493.226C529.779 490.926 529.062 488.172 529.285 485.412L528.908 472.398C531.42 472.021 533.605 473.629 535.94 474.433C539.984 475.815 541.566 472.499 544.906 471.695C549.251 470.69 555.831 472.624 560.276 473.077Z" fill="#00B808"/>
<path d="M506.858 440.718C507.787 440.594 508.733 440.689 509.62 440.994C510.219 441.325 510.741 441.778 511.152 442.325L520.545 453.078C522.378 455.164 524.312 458.103 523.056 460.465C522.616 461.162 522.024 461.751 521.323 462.186C520.623 462.621 519.833 462.891 519.013 462.977C514.459 463.438 509.87 462.565 505.803 460.465C502.89 459.183 500.052 457.802 497.239 456.294C495.139 455.331 493.31 453.864 491.915 452.023C489.78 448.707 489.127 440.718 492.969 438.23C494.878 436.999 496.561 437.879 498.419 438.758C501.033 440.082 503.928 440.754 506.858 440.718Z" fill="url(#paint2_linear)"/>
<path d="M490.583 442.677C490.73 443.659 490.992 444.62 491.362 445.541C491.768 446.761 492.307 447.932 492.969 449.033C493.872 450.31 494.995 451.416 496.284 452.299C499.52 454.477 503.057 456.17 506.782 457.324C512.435 459.528 518.576 460.17 524.563 459.183C524.021 460.506 522.998 461.575 521.7 462.173C520.412 462.756 519.02 463.072 517.606 463.103C512.086 462.943 506.681 461.48 501.834 458.832L496.284 456.319C495.505 455.974 494.757 455.562 494.049 455.088C493.063 454.354 492.213 453.452 491.538 452.425C490.278 450.58 489.509 448.444 489.302 446.22C489.202 445.142 489.278 444.056 489.528 443.004C489.528 442.551 490.181 440.491 490.784 440.491C490.568 441.198 490.499 441.942 490.583 442.677V442.677Z" fill="#473F47"/>
<path d="M560.276 473.077C563.178 473.223 566.045 473.781 568.79 474.735C570.171 475.22 571.439 475.983 572.514 476.977C573.59 477.97 574.45 479.174 575.043 480.513C575.59 481.848 575.652 483.333 575.219 484.709C574.286 486.709 572.637 488.287 570.598 489.131C560.925 494.385 549.962 496.789 538.979 496.065C536.152 496.161 533.401 495.141 531.319 493.226C529.779 490.926 529.062 488.172 529.285 485.412L528.908 472.398C531.42 472.021 533.605 473.629 535.94 474.433C539.984 475.815 541.566 472.499 544.906 471.695C549.251 470.69 555.831 472.624 560.276 473.077Z" fill="url(#paint3_linear)"/>
<path d="M525.492 329.345C528.316 329.873 530.931 331.198 533.027 333.164C535.538 335.877 535.538 339.897 535.538 343.565C535.484 369.858 530.598 395.917 521.123 420.443C520.908 421.347 520.512 422.198 519.96 422.945C519.407 423.692 518.709 424.319 517.908 424.789C516.462 425.215 514.914 425.144 513.513 424.588C507.836 423.003 502.244 421.125 496.762 418.961L504.17 368.99C504.524 367.592 504.446 366.12 503.944 364.769C503.395 363.83 502.629 363.038 501.709 362.458C493.252 356.193 484.308 350.614 474.962 345.776C467.428 341.932 458.99 337.56 456.955 329.32C456.538 327.94 456.452 326.481 456.705 325.062C456.958 323.643 457.543 322.304 458.412 321.154C459.586 319.979 460.976 319.041 462.506 318.391C467.529 315.879 473.682 312.738 479.383 313.366C483.903 313.818 485.661 316.507 489.428 318.391C500.077 323.943 514.065 325.953 525.492 329.345Z" fill="white"/>
<path d="M502.664 420.945C502.036 420.744 504.246 408.961 504.447 407.781C504.849 405.469 506.581 395.219 508.415 402.329C508.712 403.888 508.896 405.466 508.967 407.052C509.194 408.944 509.521 410.822 509.947 412.68C510.182 414.138 510.613 415.558 511.228 416.9C512.393 418.87 513.948 420.579 515.798 421.925C516.144 422.294 516.604 422.533 517.104 422.603C517.833 422.603 518.385 421.925 518.687 421.247C519.441 419.138 519.766 416.9 519.641 414.664C520.018 402.103 526.522 391.149 526.095 378.26C526.095 375.12 523.107 371.326 521.851 368.437C520.739 366.104 519.896 363.651 519.34 361.126C517.757 352.559 522.805 344.193 523.509 335.5L506.481 343.866L496.762 419.061L502.664 420.945Z" fill="url(#paint4_linear)"/>
<path d="M458.412 322.009C454.999 323.919 451.486 325.647 447.889 327.184C446.935 327.611 445.981 328.013 445.001 328.39C433.945 332.94 421.931 334.667 410.042 333.415C408.836 333.264 407.631 333.063 406.425 332.812C399.573 331.716 393.3 328.312 388.644 323.164C383.094 316.507 381.788 307.236 381.437 298.518V296.006C381.129 285.136 381.971 274.264 383.948 263.571C385.997 250.855 390.919 238.774 398.339 228.248C403.341 221.477 409.85 215.963 417.35 212.143C425.11 208.199 434.302 206.189 442.59 208.928C446.89 210.514 450.865 212.873 454.318 215.887C455.609 216.851 456.766 217.984 457.759 219.253C459.15 221.289 460.107 223.59 460.572 226.012C464.013 241.086 459.241 256.486 455.549 271.46C453.515 280.002 451.958 289.398 455.85 297.237C461.401 308.316 474.837 312.839 458.412 322.009Z" fill="#00B808"/>
<path d="M458.412 322.059C458.111 325.526 453.741 326.807 450.25 327.084L447.889 327.209C435.34 327.937 422.753 326.785 410.544 323.793C409.042 323.262 407.415 323.192 405.873 323.592C405.638 323.674 405.418 323.792 405.22 323.943V324.772C404.823 326.142 404.741 327.583 404.981 328.988C405.22 330.394 405.774 331.727 406.601 332.887C399.749 331.791 393.476 328.388 388.82 323.24C383.27 316.582 381.964 307.311 381.613 298.594V296.081C381.449 289.643 381.65 283.201 382.215 276.786C382.398 271.047 383.241 265.349 384.727 259.803C388.352 249.279 394.798 239.953 403.362 232.845C404.158 232.101 405.086 231.513 406.099 231.112C407.244 230.827 408.435 230.783 409.598 230.982C410.761 231.181 411.87 231.618 412.855 232.267C414.569 233.089 416.092 234.262 417.325 235.709C418.911 237.907 419.787 240.537 419.837 243.246C419.913 246.914 419.585 250.579 418.857 254.175C418.106 259.556 416.947 264.873 415.391 270.078C414.644 271.98 414.081 273.948 413.709 275.957C413.407 278.543 413.86 281.161 415.015 283.494C415.944 285.605 416.095 287.816 416.848 290.026C418.401 294.572 420.891 298.74 424.156 302.262C430.962 309.433 439.937 314.165 449.698 315.728C451.731 315.906 453.723 316.406 455.6 317.21C456.463 317.688 457.181 318.391 457.677 319.245C458.172 320.099 458.426 321.072 458.412 322.059V322.059Z" fill="url(#paint5_linear)"/>
<path d="M426.567 230.383C427.896 232.059 429.561 233.437 431.456 234.428C433.351 235.419 435.433 236.001 437.567 236.136C438.241 236.212 438.921 236.062 439.501 235.709C440.108 235.093 440.451 234.263 440.455 233.398C440.656 231.664 440.907 229.453 441.083 227.243C441.259 225.032 441.61 222.218 441.862 220.459C442.368 215.457 444.265 210.696 447.336 206.717C447.962 205.848 448.687 205.056 449.496 204.355C454.795 199.582 433.247 201.466 430.409 194.959C427.145 199.205 427.446 205.159 425.989 210.36C425.017 212.893 424.178 215.476 423.478 218.098C423.107 220.248 423.19 222.452 423.722 224.567C424.254 226.683 425.223 228.664 426.567 230.383V230.383Z" fill="#C1A7A7"/>
<path d="M440.807 228.248L441.083 227.243C441.385 224.73 441.611 222.218 441.862 220.459C442.369 215.457 444.265 210.696 447.337 206.717L447.487 206.189C447.487 206.189 430.41 194.959 428.576 208.098C426.743 221.238 440.807 228.248 440.807 228.248Z" fill="url(#paint6_linear)"/>
<path d="M458.613 198.928C458.94 201.653 458.432 204.413 457.157 206.842C456.475 207.822 455.625 208.673 454.645 209.355C447.864 214.379 437.668 213.45 430.937 208.149C427.67 205.346 425.035 201.881 423.208 197.983C421.38 194.085 420.403 189.843 420.339 185.538C419.865 181.051 421.133 176.554 423.88 172.976C425.55 171.354 427.599 170.176 429.841 169.549C432.082 168.922 434.444 168.865 436.713 169.383C442.905 170.84 448.546 174.05 452.962 178.629C457.307 183.503 458.387 192.773 458.613 198.928Z" fill="#C1A7A7"/>
<path d="M520.193 364.216C523.718 368.77 526.49 373.859 528.406 379.29C539.112 405.611 546.053 433.31 549.025 461.57C540.261 462.676 531.393 462.676 522.629 461.57C521.942 441.552 518.899 421.685 513.563 402.379C512.636 398.246 511.023 394.297 508.791 390.697C504.899 384.943 498.495 381.627 492.342 378.512C478.171 371.474 463.34 365.852 448.065 361.729C441.636 359.92 435.156 358.287 428.827 356.101C423.37 354.474 418.261 351.85 413.759 348.363C411.509 346.601 409.635 344.406 408.246 341.908C406.857 339.409 405.982 336.658 405.672 333.817C405.672 335.274 437.668 333.817 440.656 333.365C450.702 332.284 462.455 326.456 472.351 330.576C480.086 333.792 487.143 340.5 494.1 345.122C502.915 350.876 513.362 356.252 520.193 364.216Z" fill="white"/>
<path d="M474.611 362.081L418.907 334.445L483.376 311.205L534.157 333.741L474.611 362.081Z" fill="#00B808"/>
<path d="M474.912 357.885L428.426 334.797L482.246 315.401L524.664 334.219L474.912 357.885Z" fill="url(#paint7_linear)"/>
<path d="M397.284 243.699C397.158 244.653 397.033 245.608 396.932 246.563C395.425 260.732 396.782 274.676 397.309 288.795C397.635 297.513 398.766 314.17 407.882 318.642C425.01 327.008 457.96 323.792 457.96 323.792C461.778 323.188 465.678 323.342 469.437 324.245C471.497 324.898 473.38 326.003 475.364 326.757C482.572 329.571 490.634 328.139 498.218 326.757C499.532 326.606 500.799 326.178 501.935 325.501C504.874 323.491 504.748 318.717 502.563 315.904C500.095 313.327 496.895 311.573 493.396 310.879C483.819 307.687 473.532 307.287 463.736 309.723C462.485 310.148 461.211 310.5 459.919 310.778C458.408 311.025 456.879 311.135 455.348 311.105H443.695C430.334 311.231 417.727 311.281 415.718 295.378C414.965 289.496 414.813 283.553 415.266 277.64C416.069 266.963 418.807 256.386 418.229 245.683C418.171 242.29 417.31 238.958 415.718 235.96C414.934 234.483 413.783 233.233 412.375 232.33C410.967 231.428 409.35 230.905 407.681 230.81C405.933 230.945 404.25 231.536 402.8 232.523C401.351 233.51 400.185 234.86 399.419 236.438C398.3 238.719 397.578 241.175 397.284 243.699V243.699Z" fill="#C1A7A7"/>
<path d="M555.077 282.891L484.104 319.597L474.611 362.081L534.157 333.741L555.077 282.891Z" fill="#00B808"/>
<path d="M459.366 168.78C459.055 168.343 458.673 167.961 458.236 167.65C458.714 167.437 459.113 167.081 459.379 166.631C459.645 166.18 459.763 165.658 459.718 165.137C459.567 164.082 458.814 164.007 458.06 163.579C457.307 163.152 457.709 162.7 457.181 161.871C456.803 161.396 456.253 161.089 455.649 161.017L450.325 159.66C450.325 158.982 450.501 158.178 449.999 157.726C449.496 157.273 448.065 157.726 447.035 157.474C445.579 157.248 444.926 155.54 443.871 154.485C441.51 152.148 439.953 154.485 437.818 154.862C435.684 155.238 434.83 152.952 432.368 152.626C430.443 152.479 428.508 152.745 426.693 153.404C424.683 153.861 422.819 154.81 421.268 156.168C420.187 157.396 419.336 158.808 418.757 160.339C418.149 159.884 417.386 159.687 416.634 159.791C415.882 159.894 415.201 160.289 414.738 160.891L414.512 161.268C414.035 162.298 414.211 163.58 413.533 164.459C413.023 164.409 412.51 164.409 412.001 164.459C411.495 164.591 411.024 164.831 410.619 165.162C410.209 165.514 409.879 165.949 409.649 166.439C409.42 166.928 409.297 167.461 409.288 168.001C408.503 167.808 407.676 167.87 406.928 168.177C407.331 167.449 407.611 166.66 407.756 165.841C407.844 165.533 407.853 165.209 407.783 164.897C407.713 164.586 407.565 164.297 407.355 164.057C406.852 163.655 405.873 164.057 406.074 164.71C406.181 164.458 406.238 164.187 406.241 163.912C406.243 163.638 406.192 163.366 406.089 163.111C405.987 162.857 405.835 162.625 405.643 162.43C405.45 162.234 405.221 162.078 404.969 161.972V161.972C404.442 161.798 403.879 161.772 403.339 161.896C402.799 162.02 402.303 162.289 401.905 162.675C401.528 162.323 402.181 161.67 402.03 161.168C401.96 160.992 401.848 160.837 401.704 160.715C401.033 160.081 400.26 159.563 399.418 159.183C399.011 159.006 398.563 158.941 398.122 158.994C397.681 159.047 397.262 159.216 396.907 159.484C396.606 157.625 394.998 154.786 392.688 155.339C392.01 155.49 391.432 156.294 391.784 156.922C390.962 156.027 389.959 155.317 388.842 154.84C387.725 154.364 386.519 154.131 385.304 154.158C384.475 154.158 383.345 154.837 383.772 155.565C382.704 154.769 381.485 154.199 380.19 153.888C378.895 153.577 377.551 153.532 376.238 153.756C376.004 153.748 375.773 153.811 375.576 153.936C375.379 154.062 375.224 154.244 375.133 154.46C375.007 154.887 375.736 155.364 375.911 154.937C375.252 154.837 374.578 154.92 373.962 155.177C373.346 155.434 372.813 155.855 372.421 156.394C371.772 157.133 371.427 158.091 371.454 159.074C371.482 160.058 371.881 160.994 372.571 161.695C374.103 162.951 377.016 161.695 376.615 159.66C377.162 160.332 377.934 160.784 378.787 160.932C379.641 161.08 380.52 160.913 381.261 160.464C381.455 161.463 382.038 162.344 382.88 162.914C383.723 163.483 384.757 163.696 385.756 163.504C386.228 163.408 386.678 163.229 387.087 162.977C387.318 163.943 387.818 164.825 388.529 165.519C389.24 166.212 390.134 166.69 391.106 166.896C393.055 167.273 395.058 167.273 397.007 166.896C396.507 167.328 395.913 167.637 395.272 167.798C394.631 167.959 393.961 167.969 393.316 167.825C392.697 167.675 392.051 167.675 391.432 167.825C390.77 168.179 390.181 168.656 389.699 169.232C389.602 169.338 389.493 169.43 389.373 169.509C389.063 169.64 388.73 169.708 388.393 169.708C388.057 169.708 387.724 169.64 387.414 169.509C386.535 169.206 385.58 169.206 384.701 169.509C384.271 169.677 383.907 169.982 383.667 170.377C383.426 170.772 383.322 171.235 383.37 171.694C382.823 171.581 382.258 171.576 381.709 171.682C381.16 171.787 380.637 172 380.17 172.308C379.703 172.616 379.302 173.014 378.989 173.477C378.676 173.941 378.458 174.462 378.348 175.011C378.285 175.427 378.285 175.851 378.348 176.267C377.793 176.083 377.194 176.081 376.638 176.261C376.082 176.442 375.599 176.796 375.258 177.272C374.971 177.717 374.767 178.211 374.656 178.729C374.451 179.678 374.358 180.648 374.379 181.618C374.36 182.011 374.447 182.401 374.631 182.749C374.72 182.924 374.864 183.065 375.04 183.152C375.217 183.238 375.417 183.264 375.61 183.226C375.343 183.529 375.143 183.884 375.022 184.27C374.9 184.655 374.861 185.061 374.907 185.462C375.003 185.783 375.176 186.076 375.409 186.316C375.806 186.832 376.362 187.203 376.991 187.372C377.302 187.457 377.63 187.461 377.943 187.382C378.255 187.302 378.542 187.143 378.774 186.919C379.427 186.291 379.427 185.261 379.98 184.407C379.919 184.668 379.929 184.941 380.008 185.197C380.088 185.453 380.234 185.683 380.432 185.864C380.864 186.21 381.414 186.372 381.964 186.316C382.117 186.304 382.264 186.252 382.391 186.166C382.495 186.059 382.572 185.93 382.617 185.789C383.027 184.704 383.088 183.518 382.793 182.397C383.037 182.619 383.334 182.772 383.656 182.843C383.978 182.913 384.312 182.898 384.626 182.799C384.937 182.687 385.212 182.492 385.42 182.235C385.628 181.979 385.762 181.669 385.806 181.342C385.781 180.991 385.781 180.638 385.806 180.287C385.806 179.784 386.56 179.633 386.962 179.357C387.523 178.974 388.052 178.545 388.544 178.076C388.77 177.85 391.055 175.212 390.829 175.036C391.414 175.413 392.117 175.56 392.804 175.448C393.49 175.337 394.111 174.975 394.546 174.433C394.938 175.13 395.564 175.667 396.313 175.947C397.062 176.228 397.886 176.234 398.64 175.965C396.075 177.749 393.716 179.814 391.608 182.121C389.515 184.41 388.258 187.341 388.042 190.437C387.963 192.008 388.444 193.557 389.398 194.808C389.894 195.411 390.554 195.858 391.298 196.095C392.042 196.331 392.839 196.347 393.592 196.14C393.564 195.909 393.484 195.687 393.359 195.491C393.234 195.295 393.066 195.129 392.869 195.006C392.671 194.883 392.449 194.806 392.217 194.781C391.986 194.755 391.752 194.782 391.533 194.858C391.098 195.045 390.709 195.323 390.392 195.674C390.076 196.026 389.839 196.442 389.699 196.893C389.439 197.448 389.305 198.052 389.305 198.665C389.305 199.277 389.439 199.882 389.699 200.436C389.963 200.958 390.423 201.355 390.978 201.538C391.534 201.722 392.14 201.678 392.663 201.416V201.416C393.129 200.996 393.512 200.494 393.793 199.933C394.696 198.921 395.652 197.956 396.656 197.044C397.132 196.57 397.431 195.948 397.504 195.281C397.577 194.614 397.42 193.941 397.058 193.376C398.464 192.698 398.414 190.587 397.635 189.231C396.672 188.019 395.83 186.714 395.124 185.337H400.348L402.859 183.025C403.93 183.705 405.132 184.152 406.386 184.338C407.641 184.524 408.92 184.445 410.142 184.105C409.935 185.332 410.114 186.593 410.653 187.713C411.193 188.834 412.068 189.759 413.156 190.361C412.729 190.688 412.126 191.09 412.202 191.718C412.245 191.921 412.347 192.108 412.494 192.255C412.641 192.402 412.827 192.503 413.03 192.547C413.429 192.622 413.838 192.622 414.236 192.547C414.412 192.924 413.985 193.326 414.035 193.753C414.089 193.997 414.233 194.212 414.437 194.356C414.903 194.731 415.441 195.005 416.019 195.16C415.909 195.304 415.849 195.481 415.849 195.662C415.849 195.844 415.909 196.02 416.019 196.165C416.222 196.462 416.511 196.69 416.848 196.818C417.675 197.249 418.565 197.546 419.485 197.697C419.379 198.203 419.431 198.73 419.635 199.205C419.726 199.446 419.9 199.647 420.125 199.771C420.351 199.896 420.614 199.935 420.866 199.883C421.092 199.883 421.293 199.632 421.519 199.682C421.66 199.727 421.783 199.815 421.871 199.933C422.289 200.408 422.606 200.964 422.8 201.566C422.861 201.851 422.972 202.123 423.126 202.37C423.358 202.671 423.672 202.898 424.031 203.024C424.508 203.199 425.085 203.35 425.462 203.024C425.585 202.891 425.669 202.727 425.704 202.549C425.74 202.372 425.725 202.188 425.663 202.019C425.537 201.691 425.358 201.386 425.136 201.114C425.261 201.174 425.403 201.186 425.537 201.149C425.671 201.112 425.787 201.029 425.864 200.913C425.964 200.646 425.964 200.351 425.864 200.084C425.565 199.388 425.158 198.744 424.658 198.175C424.633 198.119 424.621 198.059 424.621 197.999C424.621 197.938 424.633 197.878 424.658 197.823C424.674 197.763 424.702 197.708 424.741 197.66C424.78 197.612 424.829 197.574 424.884 197.547C425.311 197.069 424.884 196.29 424.633 195.738C424.382 195.185 423.804 194.557 424.081 193.954C424.228 193.699 424.405 193.463 424.608 193.25C424.884 192.874 424.884 192.195 425.236 191.919C425.408 191.823 425.609 191.796 425.8 191.842C425.991 191.889 426.157 192.006 426.266 192.17C426.517 192.472 426.617 192.874 426.843 193.175C427.291 193.616 427.788 194.004 428.325 194.331C428.702 194.682 428.978 195.185 429.38 195.537C429.502 195.701 429.672 195.825 429.866 195.89C430.061 195.955 430.271 195.959 430.467 195.902C430.664 195.844 430.839 195.728 430.968 195.569C431.097 195.409 431.173 195.214 431.188 195.009C431.228 194.673 431.185 194.332 431.063 194.017C430.94 193.701 430.742 193.421 430.485 193.2C430.287 193.067 430.11 192.906 429.957 192.723C429.874 192.634 429.828 192.518 429.828 192.396C429.828 192.275 429.874 192.158 429.957 192.07C430.057 192.086 430.159 192.071 430.249 192.026C430.34 191.981 430.413 191.908 430.46 191.818C430.485 191.737 430.485 191.649 430.46 191.567C430.413 191.331 430.3 191.113 430.133 190.939C430.133 190.939 429.932 190.738 429.957 190.612C429.932 190.548 429.932 190.476 429.957 190.411C430.209 189.984 430.56 189.608 430.786 189.18C430.963 188.841 431.004 188.447 430.902 188.079C430.799 187.71 430.56 187.395 430.234 187.196C430.736 187.513 431.335 187.642 431.924 187.559C432.513 187.476 433.053 187.187 433.448 186.743C434.222 185.858 434.788 184.811 435.106 183.678C435.282 183.812 435.483 183.91 435.698 183.965C435.912 184.021 436.135 184.034 436.354 184.004C436.573 183.974 436.784 183.901 436.975 183.789C437.166 183.677 437.333 183.528 437.467 183.352C437.6 183.175 437.698 182.974 437.754 182.76C437.81 182.546 437.823 182.323 437.792 182.103C437.762 181.884 437.689 181.673 437.577 181.482C437.465 181.291 437.317 181.124 437.14 180.99H436.939C437.594 181.32 438.298 181.541 439.024 181.643C439.39 181.692 439.762 181.646 440.105 181.509C440.448 181.373 440.75 181.151 440.983 180.865C441.611 179.985 441.284 178.603 442.113 177.9C443.392 179.017 444.78 180.001 446.257 180.839C447.439 181.228 448.727 181.132 449.839 180.572C450.95 180.011 451.793 179.032 452.184 177.85C452.184 177.85 452.184 177.85 452.184 177.699C452.799 178.106 453.503 178.362 454.236 178.445C454.969 178.528 455.712 178.436 456.403 178.176C456.954 177.746 457.348 177.146 457.525 176.47C457.702 175.794 457.652 175.078 457.382 174.433C458.134 174.343 458.828 173.987 459.339 173.43C459.851 172.872 460.145 172.149 460.17 171.393C460.201 170.457 459.918 169.537 459.366 168.78V168.78Z" fill="#473F47"/>
<path d="M529.636 489.407C529.636 489.407 532.148 494.432 549.125 491.568C566.102 488.703 574.089 483.402 575.043 480.413C575.378 480.982 575.598 481.611 575.69 482.265C575.782 482.919 575.744 483.585 575.578 484.224C575.412 484.864 575.122 485.464 574.725 485.991C574.327 486.518 573.829 486.962 573.26 487.297C569.015 489.809 552.566 501.114 532.524 494.18C532.524 494.281 530.013 493.577 529.636 489.407Z" fill="#473F47"/>
<path d="M422.473 190.11C422.142 190.122 421.82 190.226 421.544 190.411C420.936 190.812 420.454 191.375 420.152 192.037C419.85 192.699 419.74 193.433 419.836 194.155C420.041 195.613 420.69 196.973 421.695 198.049C422.1 198.572 422.614 199.001 423.202 199.305C423.999 199.633 424.851 199.804 425.713 199.808C426.044 199.883 426.387 199.883 426.718 199.808C427.051 199.624 427.329 199.355 427.523 199.028C427.717 198.702 427.821 198.329 427.823 197.949C427.954 196.134 427.562 194.321 426.693 192.723C426.416 192.21 425.985 191.797 425.462 191.542C424.584 190.849 423.564 190.36 422.473 190.11V190.11Z" fill="#C1A7A7"/>
<path d="M404.793 170.89C403.792 173.755 403.307 176.775 403.361 179.809C403.218 181.452 403.432 183.106 403.989 184.658C404.496 185.686 405.137 186.641 405.898 187.497C406.652 187.567 407.411 187.465 408.12 187.2C408.829 186.934 409.469 186.512 409.992 185.965C410.251 185.706 410.441 185.386 410.544 185.035C410.82 184.08 410.167 183.176 409.64 182.322C408.08 179.482 407.709 176.139 408.61 173.026C409.037 171.318 412.026 166.745 408.183 167.474C407.37 167.699 406.629 168.132 406.034 168.731C405.44 169.331 405.012 170.075 404.793 170.89V170.89Z" fill="#00B808"/>
<path d="M457.131 540.157H454.62C454.287 540.157 453.968 540.024 453.732 539.789C453.497 539.553 453.364 539.234 453.364 538.9C453.364 538.567 453.497 538.248 453.732 538.012C453.968 537.777 454.287 537.644 454.62 537.644H457.131C457.464 537.644 457.784 537.777 458.019 538.012C458.255 538.248 458.387 538.567 458.387 538.9C458.387 539.234 458.255 539.553 458.019 539.789C457.784 540.024 457.464 540.157 457.131 540.157ZM469.689 540.157C469.356 540.157 469.036 540.024 468.801 539.789C468.565 539.553 468.433 539.234 468.433 538.9C468.433 538.567 468.565 538.248 468.801 538.012C469.036 537.777 469.356 537.644 469.689 537.644H472.2C472.533 537.644 472.852 537.777 473.088 538.012C473.323 538.248 473.456 538.567 473.456 538.9C473.456 539.234 473.323 539.553 473.088 539.789C472.852 540.024 472.533 540.157 472.2 540.157H469.689ZM442.063 539.855H439.551C439.386 539.849 439.224 539.81 439.074 539.741C438.925 539.671 438.79 539.573 438.678 539.452C438.566 539.331 438.479 539.188 438.422 539.033C438.365 538.878 438.339 538.714 438.346 538.549C438.342 538.389 438.371 538.231 438.431 538.083C438.49 537.935 438.579 537.801 438.691 537.688C438.804 537.576 438.938 537.487 439.086 537.428C439.234 537.368 439.392 537.339 439.551 537.343H442.063C442.396 537.343 442.715 537.475 442.951 537.711C443.186 537.946 443.319 538.266 443.319 538.599C443.319 538.932 443.186 539.252 442.951 539.487C442.715 539.723 442.396 539.855 442.063 539.855ZM484.757 539.855C484.424 539.855 484.105 539.723 483.869 539.487C483.634 539.252 483.501 538.932 483.501 538.599C483.501 538.266 483.634 537.946 483.869 537.711C484.105 537.475 484.424 537.343 484.757 537.343H487.269C487.598 537.342 487.916 537.465 488.158 537.689C488.401 537.913 488.549 538.22 488.575 538.549C488.581 538.714 488.555 538.878 488.498 539.033C488.442 539.188 488.355 539.331 488.243 539.452C488.131 539.573 487.996 539.671 487.846 539.741C487.696 539.81 487.534 539.849 487.369 539.855H484.858H484.757ZM426.994 539.202L424.483 539.051C424.318 539.042 424.156 538.999 424.008 538.927C423.859 538.855 423.726 538.754 423.616 538.631C423.507 538.507 423.422 538.363 423.369 538.206C423.315 538.05 423.292 537.885 423.302 537.72V537.72C423.302 537.56 423.334 537.402 423.397 537.256C423.459 537.109 423.551 536.977 423.666 536.866C423.781 536.756 423.917 536.67 424.066 536.614C424.215 536.558 424.374 536.532 424.533 536.539V536.539L427.044 536.69C427.377 536.69 427.697 536.822 427.932 537.057C428.168 537.293 428.3 537.613 428.3 537.946C428.3 538.279 428.168 538.598 427.932 538.834C427.697 539.07 427.377 539.202 427.044 539.202H426.994ZM499.826 539.202C499.507 539.197 499.202 539.073 498.97 538.854C498.738 538.636 498.595 538.339 498.57 538.021C498.562 537.691 498.68 537.37 498.899 537.123C499.118 536.876 499.422 536.721 499.75 536.69L502.262 536.539C502.592 536.531 502.913 536.648 503.159 536.867C503.406 537.086 503.561 537.391 503.593 537.72C503.603 537.885 503.581 538.05 503.527 538.206C503.473 538.363 503.389 538.507 503.279 538.631C503.169 538.754 503.036 538.855 502.888 538.927C502.739 538.999 502.578 539.042 502.413 539.051L499.901 539.202H499.826ZM411.926 538.197L409.414 537.971C409.249 537.958 409.088 537.913 408.941 537.838C408.793 537.763 408.662 537.659 408.554 537.533C408.447 537.407 408.366 537.261 408.315 537.103C408.264 536.945 408.245 536.779 408.259 536.614C408.303 536.286 408.47 535.986 408.726 535.776C408.983 535.566 409.31 535.462 409.64 535.484L412.152 535.685C412.485 535.685 412.804 535.817 413.04 536.053C413.275 536.288 413.407 536.608 413.407 536.941C413.407 537.274 413.275 537.593 413.04 537.829C412.804 538.065 412.485 538.197 412.152 538.197H411.926ZM514.894 538.197C514.561 538.197 514.242 538.065 514.006 537.829C513.771 537.593 513.639 537.274 513.639 536.941C513.639 536.608 513.771 536.288 514.006 536.053C514.242 535.817 514.561 535.685 514.894 535.685L517.406 535.484C517.734 535.462 518.057 535.567 518.31 535.778C518.562 535.988 518.724 536.288 518.762 536.614C518.779 536.776 518.764 536.94 518.718 537.096C518.672 537.252 518.595 537.397 518.492 537.523C518.39 537.649 518.263 537.754 518.119 537.831C517.976 537.908 517.819 537.955 517.657 537.971V537.971L515.145 538.197H514.894ZM397.033 536.815H396.882L394.371 536.539C394.038 536.499 393.734 536.328 393.527 536.064C393.32 535.8 393.226 535.465 393.266 535.132C393.306 534.799 393.476 534.495 393.74 534.288C394.004 534.08 394.339 533.986 394.672 534.026L397.183 534.303C397.517 534.303 397.836 534.435 398.071 534.671C398.307 534.906 398.439 535.226 398.439 535.559C398.439 535.892 398.307 536.212 398.071 536.447C397.836 536.683 397.517 536.815 397.183 536.815H397.033ZM529.888 536.815C529.555 536.815 529.235 536.683 529 536.447C528.764 536.212 528.632 535.892 528.632 535.559C528.632 535.226 528.764 534.906 529 534.671C529.235 534.435 529.555 534.303 529.888 534.303L532.399 534.026C532.721 533.99 533.044 534.08 533.302 534.276C533.559 534.473 533.731 534.761 533.78 535.082C533.816 535.411 533.719 535.741 533.512 536C533.305 536.259 533.004 536.426 532.675 536.463L530.164 536.74L529.888 536.815ZM382.065 535.056H381.889L379.377 534.705C379.213 534.683 379.053 534.63 378.909 534.547C378.765 534.464 378.639 534.353 378.537 534.221C378.436 534.09 378.361 533.939 378.318 533.778C378.275 533.618 378.264 533.45 378.285 533.285C378.306 533.12 378.36 532.961 378.443 532.817C378.526 532.673 378.636 532.546 378.768 532.445C378.9 532.343 379.05 532.269 379.211 532.226C379.372 532.182 379.539 532.171 379.704 532.192L382.215 532.544C382.538 532.582 382.832 532.746 383.035 533C383.237 533.254 383.331 533.578 383.295 533.901V533.901C383.208 534.17 383.037 534.404 382.806 534.567C382.575 534.73 382.297 534.814 382.014 534.805L382.065 535.056ZM544.856 535.056C544.691 535.068 544.525 535.047 544.369 534.995C544.212 534.942 544.067 534.859 543.942 534.751C543.69 534.532 543.535 534.221 543.512 533.888C543.489 533.555 543.599 533.226 543.818 532.974C544.037 532.722 544.347 532.567 544.68 532.544L547.191 532.218C547.351 532.192 547.515 532.199 547.672 532.238C547.829 532.276 547.978 532.345 548.108 532.441C548.239 532.536 548.349 532.657 548.433 532.795C548.517 532.934 548.573 533.087 548.598 533.248V533.248C548.642 533.576 548.556 533.909 548.359 534.177C548.163 534.444 547.87 534.624 547.543 534.68V534.68L545.032 535.006L544.856 535.056ZM367.147 532.921H366.946L364.434 532.519C364.255 532.508 364.08 532.459 363.921 532.376C363.762 532.292 363.622 532.176 363.511 532.036C363.399 531.895 363.319 531.732 363.274 531.558C363.23 531.384 363.222 531.203 363.252 531.025C363.283 530.848 363.349 530.68 363.449 530.53C363.549 530.381 363.678 530.254 363.83 530.158C363.982 530.062 364.152 529.998 364.33 529.972C364.507 529.946 364.688 529.958 364.861 530.007L367.373 530.434C367.533 530.458 367.686 530.514 367.825 530.598C367.963 530.682 368.084 530.793 368.18 530.923C368.275 531.054 368.344 531.202 368.382 531.36C368.421 531.517 368.427 531.681 368.402 531.841C368.304 532.1 368.123 532.32 367.886 532.465C367.65 532.611 367.372 532.674 367.097 532.645L367.147 532.921ZM559.749 532.921C559.584 532.934 559.418 532.915 559.26 532.864C559.103 532.813 558.957 532.731 558.831 532.624C558.705 532.517 558.602 532.386 558.526 532.238C558.451 532.091 558.406 531.93 558.392 531.765C558.379 531.6 558.399 531.434 558.45 531.277C558.5 531.119 558.582 530.974 558.689 530.848C558.796 530.722 558.927 530.618 559.075 530.543C559.222 530.467 559.383 530.422 559.548 530.409L562.059 529.982C562.385 529.931 562.718 530.01 562.986 530.203C563.254 530.396 563.435 530.686 563.491 531.012C563.519 531.175 563.516 531.342 563.479 531.504C563.443 531.666 563.375 531.819 563.279 531.955C563.184 532.09 563.062 532.206 562.922 532.294C562.781 532.382 562.625 532.441 562.461 532.469V532.469L559.95 532.871L559.749 532.921ZM352.304 530.409H352.078L349.567 529.931C349.405 529.898 349.252 529.834 349.115 529.741C348.978 529.649 348.861 529.531 348.77 529.393C348.679 529.255 348.616 529.101 348.585 528.939C348.553 528.777 348.554 528.611 348.587 528.449C348.614 528.289 348.673 528.137 348.76 528C348.848 527.864 348.962 527.747 349.095 527.655C349.229 527.564 349.379 527.5 349.538 527.468C349.697 527.436 349.86 527.437 350.019 527.469V527.469L352.53 527.947C352.692 527.979 352.845 528.044 352.982 528.136C353.119 528.229 353.236 528.347 353.327 528.485C353.418 528.622 353.481 528.777 353.512 528.939C353.544 529.101 353.543 529.267 353.51 529.429C353.383 529.654 353.188 529.833 352.954 529.941C352.72 530.049 352.457 530.081 352.204 530.032L352.304 530.409ZM574.591 530.409C574.3 530.414 574.017 530.315 573.792 530.131C573.567 529.947 573.414 529.69 573.361 529.404C573.301 529.074 573.373 528.735 573.561 528.458C573.749 528.181 574.037 527.988 574.365 527.921L576.877 527.444C577.203 527.385 577.539 527.458 577.812 527.646C578.085 527.835 578.272 528.123 578.333 528.449C578.37 528.602 578.376 528.762 578.35 528.918C578.325 529.074 578.268 529.223 578.184 529.356C578.099 529.49 577.989 529.605 577.86 529.695C577.73 529.785 577.584 529.848 577.429 529.881V529.881L574.918 530.383L574.591 530.409ZM337.512 527.092H337.236L334.724 526.514C334.559 526.478 334.403 526.41 334.265 526.313C334.126 526.216 334.008 526.093 333.917 525.951C333.826 525.809 333.764 525.65 333.735 525.484C333.705 525.317 333.708 525.147 333.745 524.982C333.781 524.817 333.849 524.661 333.946 524.522C334.043 524.384 334.166 524.266 334.308 524.175C334.45 524.084 334.609 524.022 334.775 523.992C334.941 523.962 335.112 523.966 335.277 524.002L337.788 524.555C337.95 524.59 338.103 524.658 338.239 524.753C338.375 524.848 338.491 524.969 338.579 525.11C338.668 525.25 338.728 525.406 338.756 525.57C338.784 525.733 338.779 525.901 338.742 526.062C338.694 526.353 338.544 526.617 338.318 526.806C338.092 526.995 337.806 527.096 337.512 527.092ZM589.208 526.816C589.043 526.833 588.876 526.818 588.717 526.77C588.558 526.723 588.41 526.644 588.281 526.539C588.153 526.434 588.047 526.304 587.968 526.158C587.89 526.011 587.842 525.851 587.826 525.685C587.806 525.522 587.818 525.355 587.862 525.196C587.907 525.037 587.983 524.889 588.086 524.76C588.189 524.631 588.317 524.524 588.462 524.446C588.608 524.368 588.767 524.319 588.931 524.304V524.304L591.443 523.726C591.608 523.689 591.778 523.686 591.944 523.716C592.111 523.745 592.269 523.807 592.412 523.898C592.554 523.989 592.677 524.107 592.774 524.246C592.87 524.384 592.939 524.541 592.975 524.706C593.011 524.871 593.015 525.041 592.985 525.207C592.955 525.374 592.893 525.532 592.802 525.675C592.711 525.817 592.593 525.94 592.455 526.037C592.316 526.133 592.16 526.202 591.995 526.238V526.238L589.484 526.791L589.208 526.816ZM322.745 523.424C322.646 523.45 322.542 523.45 322.443 523.424L319.932 522.796C319.599 522.707 319.313 522.493 319.135 522.197C318.957 521.902 318.901 521.549 318.977 521.213C319.066 520.881 319.282 520.598 319.578 520.424C319.874 520.25 320.227 520.2 320.56 520.284L323.071 520.937C323.231 520.978 323.382 521.05 323.514 521.15C323.646 521.249 323.757 521.373 323.841 521.516C323.925 521.658 323.98 521.815 324.003 521.979C324.026 522.143 324.017 522.31 323.975 522.47V522.47C323.912 522.728 323.769 522.96 323.566 523.131C323.362 523.303 323.11 523.405 322.845 523.424H322.745ZM603.849 523.274C603.516 523.317 603.18 523.226 602.914 523.021C602.647 522.816 602.474 522.514 602.43 522.181C602.387 521.847 602.478 521.511 602.683 521.245C602.888 520.978 603.19 520.804 603.523 520.761L606.034 520.133C606.199 520.092 606.371 520.084 606.539 520.109C606.707 520.134 606.868 520.191 607.014 520.279C607.16 520.366 607.287 520.482 607.388 520.618C607.489 520.755 607.563 520.91 607.604 521.075C607.645 521.24 607.654 521.412 607.629 521.58C607.603 521.748 607.546 521.91 607.458 522.055C607.371 522.201 607.255 522.328 607.119 522.43C606.982 522.531 606.827 522.604 606.662 522.645L604.151 523.274H603.849ZM308.229 519.379H307.927L305.416 518.651C305.256 518.608 305.106 518.533 304.975 518.43C304.845 518.327 304.737 518.2 304.657 518.054C304.577 517.909 304.528 517.748 304.511 517.583C304.495 517.418 304.512 517.251 304.562 517.093C304.666 516.776 304.889 516.512 305.185 516.357C305.48 516.202 305.824 516.169 306.144 516.264L308.655 516.968C308.82 516.991 308.979 517.046 309.123 517.13C309.266 517.215 309.392 517.327 309.492 517.46C309.592 517.593 309.665 517.744 309.707 517.905C309.749 518.067 309.758 518.235 309.735 518.4C309.712 518.565 309.657 518.723 309.573 518.867C309.488 519.01 309.376 519.136 309.243 519.236C309.11 519.337 308.959 519.41 308.798 519.452C308.637 519.493 308.469 519.503 308.304 519.48V519.48L308.229 519.379ZM618.365 519.204C618.097 519.205 617.835 519.121 617.618 518.962C617.401 518.804 617.241 518.58 617.16 518.324C617.065 518.004 617.098 517.66 617.253 517.364C617.408 517.069 617.672 516.845 617.989 516.741L620.5 516.038C620.813 515.943 621.151 515.973 621.442 516.123C621.733 516.273 621.954 516.531 622.057 516.842C622.151 517.158 622.117 517.499 621.962 517.791C621.807 518.082 621.544 518.301 621.228 518.4L618.717 519.128H618.466L618.365 519.204ZM293.863 514.807H293.461L290.95 513.978C290.617 513.895 290.331 513.682 290.154 513.388C289.977 513.093 289.925 512.741 290.008 512.408C290.091 512.074 290.303 511.788 290.598 511.611C290.892 511.435 291.245 511.382 291.578 511.465H291.779L294.139 512.269C294.451 512.378 294.707 512.605 294.853 512.901C294.999 513.197 295.022 513.539 294.918 513.852C294.832 514.072 294.684 514.262 294.492 514.4C294.301 514.538 294.074 514.618 293.838 514.631L293.863 514.807ZM632.907 514.531C632.594 514.543 632.287 514.44 632.045 514.241C631.802 514.043 631.641 513.762 631.592 513.453C631.542 513.143 631.608 512.826 631.776 512.562C631.944 512.298 632.204 512.104 632.505 512.018L634.866 511.214C635.015 511.154 635.176 511.124 635.337 511.127C635.499 511.13 635.658 511.165 635.806 511.231C635.953 511.296 636.086 511.391 636.196 511.509C636.307 511.627 636.392 511.766 636.448 511.918V511.918C636.553 512.234 636.53 512.579 636.385 512.88C636.239 513.18 635.983 513.412 635.669 513.526L633.158 514.355L632.907 514.531ZM279.799 509.506H279.347L277.011 508.576C276.709 508.458 276.464 508.227 276.328 507.932C276.193 507.637 276.176 507.3 276.283 506.993C276.406 506.69 276.643 506.446 276.944 506.314C277.244 506.183 277.584 506.174 277.89 506.29L280.226 507.22C280.534 507.338 280.784 507.573 280.92 507.874C281.056 508.175 281.069 508.517 280.954 508.827V508.827C280.868 509.073 280.708 509.286 280.497 509.439C280.287 509.591 280.034 509.676 279.774 509.682L279.799 509.506ZM646.971 509.506C646.719 509.506 646.473 509.433 646.263 509.294C646.053 509.156 645.889 508.958 645.79 508.727C645.673 508.417 645.682 508.073 645.813 507.769C645.944 507.464 646.188 507.222 646.493 507.094V507.094L648.804 506.164C649.114 506.048 649.458 506.056 649.762 506.187C650.067 506.318 650.308 506.562 650.436 506.868C650.498 507.021 650.528 507.185 650.526 507.35C650.523 507.515 650.489 507.679 650.423 507.83C650.358 507.982 650.263 508.119 650.145 508.234C650.027 508.349 649.887 508.44 649.733 508.501V508.501L647.398 509.43C647.26 509.477 647.116 509.503 646.971 509.506V509.506ZM265.886 503.953C265.719 503.979 265.55 503.979 265.383 503.953L263.073 502.923C262.924 502.858 262.789 502.764 262.677 502.646C262.565 502.529 262.477 502.39 262.419 502.238C262.36 502.086 262.332 501.924 262.337 501.762C262.342 501.599 262.378 501.439 262.445 501.29C262.582 500.988 262.834 500.752 263.144 500.634C263.455 500.516 263.8 500.526 264.103 500.662L266.388 501.692C266.691 501.829 266.927 502.081 267.044 502.392C267.162 502.703 267.152 503.047 267.016 503.351C266.887 503.534 266.713 503.681 266.511 503.778C266.308 503.875 266.084 503.918 265.861 503.903L265.886 503.953ZM660.859 503.702C660.617 503.701 660.381 503.63 660.18 503.496C659.979 503.362 659.822 503.171 659.729 502.949C659.591 502.655 659.574 502.319 659.682 502.013C659.79 501.707 660.014 501.457 660.306 501.316V501.316L662.567 500.285C662.867 500.145 663.211 500.127 663.525 500.234C663.839 500.342 664.098 500.568 664.249 500.863C664.38 501.171 664.387 501.517 664.271 501.83C664.154 502.143 663.922 502.4 663.621 502.547L661.336 503.577C661.162 503.614 660.983 503.614 660.809 503.577L660.859 503.702ZM252.299 497.421H251.721L249.486 496.241C249.197 496.077 248.983 495.807 248.89 495.488C248.796 495.169 248.83 494.826 248.984 494.532V494.532C249.058 494.388 249.16 494.261 249.284 494.158C249.408 494.054 249.552 493.977 249.706 493.93C249.861 493.883 250.023 493.868 250.184 493.885C250.345 493.902 250.5 493.951 250.641 494.03V494.03L252.851 495.185C253.1 495.293 253.302 495.487 253.42 495.731C253.538 495.975 253.564 496.253 253.494 496.515C253.424 496.777 253.262 497.005 253.038 497.157C252.814 497.31 252.543 497.377 252.274 497.346L252.299 497.421ZM674.446 497.145C674.281 497.182 674.11 497.186 673.944 497.157C673.777 497.127 673.618 497.065 673.476 496.974C673.333 496.883 673.21 496.765 673.114 496.626C673.017 496.487 672.949 496.33 672.914 496.165C672.873 496.002 672.865 495.832 672.892 495.665C672.918 495.499 672.977 495.34 673.066 495.197C673.155 495.054 673.272 494.93 673.41 494.833C673.548 494.736 673.703 494.668 673.868 494.633L676.078 493.477C676.219 493.398 676.375 493.349 676.536 493.332C676.696 493.315 676.859 493.33 677.013 493.377C677.168 493.424 677.312 493.501 677.436 493.605C677.56 493.708 677.662 493.836 677.736 493.979V493.979C677.891 494.267 677.927 494.604 677.838 494.918C677.749 495.232 677.541 495.499 677.259 495.663L675.023 496.844C674.846 496.947 674.65 497.016 674.446 497.045V497.145ZM239.139 490.085C238.909 490.09 238.682 490.029 238.486 489.909L236.351 488.578C236.086 488.378 235.91 488.082 235.858 487.754C235.806 487.426 235.884 487.091 236.075 486.819C236.251 486.579 236.507 486.409 236.797 486.34C237.087 486.271 237.392 486.307 237.657 486.442L239.792 487.749C239.934 487.834 240.059 487.947 240.157 488.08C240.256 488.214 240.327 488.365 240.367 488.526C240.407 488.688 240.414 488.855 240.389 489.019C240.363 489.183 240.305 489.341 240.219 489.482C240.099 489.655 239.937 489.795 239.748 489.887C239.559 489.979 239.349 490.022 239.139 490.01V490.085ZM687.581 489.759C687.364 489.76 687.15 489.705 686.961 489.599C686.772 489.494 686.613 489.341 686.501 489.156C686.332 488.868 686.283 488.526 686.363 488.202C686.442 487.879 686.645 487.599 686.928 487.422L689.062 486.116C689.359 485.967 689.702 485.941 690.018 486.045C690.333 486.148 690.594 486.373 690.745 486.669C690.88 486.934 690.916 487.239 690.847 487.529C690.778 487.819 690.609 488.075 690.368 488.251L688.234 489.583C688.02 489.646 687.794 489.646 687.581 489.583V489.759ZM226.557 481.719C226.297 481.718 226.043 481.639 225.828 481.493L223.794 479.986C223.543 479.803 223.368 479.533 223.304 479.229C223.24 478.924 223.291 478.607 223.447 478.338C223.603 478.069 223.854 477.868 224.15 477.773C224.446 477.679 224.767 477.697 225.05 477.825L225.276 477.976L227.285 479.458C227.555 479.641 227.74 479.924 227.802 480.245C227.863 480.565 227.794 480.896 227.612 481.166V481.166C227.494 481.337 227.336 481.477 227.152 481.573C226.968 481.669 226.764 481.719 226.557 481.719V481.719ZM700.138 481.367C699.868 481.375 699.602 481.295 699.381 481.14C699.16 480.985 698.994 480.762 698.91 480.505C698.825 480.248 698.826 479.971 698.911 479.714C698.997 479.458 699.163 479.236 699.384 479.081L701.393 477.599C701.662 477.405 701.995 477.323 702.323 477.37C702.651 477.417 702.948 477.589 703.151 477.85C703.351 478.117 703.437 478.452 703.39 478.781C703.343 479.111 703.167 479.409 702.9 479.609C702.247 480.111 701.544 480.639 700.866 481.116C700.662 481.287 700.403 481.376 700.138 481.367V481.367ZM214.778 472.348C214.474 472.33 214.184 472.216 213.949 472.021L212.066 470.313C211.836 470.078 211.707 469.763 211.707 469.434C211.707 469.105 211.836 468.789 212.066 468.554C212.182 468.437 212.321 468.343 212.474 468.279C212.627 468.216 212.792 468.183 212.957 468.183C213.123 468.183 213.287 468.216 213.44 468.279C213.593 468.343 213.732 468.437 213.849 468.554V468.554L215.707 470.213C215.959 470.427 216.115 470.732 216.143 471.061C216.172 471.39 216.069 471.717 215.858 471.971C215.734 472.115 215.579 472.23 215.406 472.308C215.232 472.387 215.044 472.426 214.853 472.423L214.778 472.348ZM711.866 471.82C711.689 471.822 711.515 471.784 711.354 471.71C711.193 471.637 711.051 471.528 710.937 471.393C710.708 471.163 710.58 470.851 710.58 470.527C710.58 470.202 710.708 469.89 710.937 469.66L712.77 467.977C712.887 467.859 713.026 467.765 713.179 467.702C713.332 467.638 713.496 467.605 713.662 467.605C713.828 467.605 713.992 467.638 714.145 467.702C714.298 467.765 714.437 467.859 714.553 467.977C714.67 468.091 714.763 468.228 714.827 468.379C714.89 468.53 714.923 468.692 714.923 468.856C714.923 469.02 714.89 469.182 714.827 469.333C714.763 469.484 714.67 469.621 714.553 469.735L714.428 469.861C713.825 470.439 713.197 471.017 712.544 471.569C712.351 471.723 712.113 471.811 711.866 471.82V471.82ZM204.18 461.771C204 461.769 203.822 461.731 203.658 461.657C203.494 461.584 203.347 461.477 203.225 461.344L201.593 459.384C201.477 459.272 201.384 459.137 201.321 458.988C201.258 458.839 201.226 458.679 201.226 458.518C201.226 458.356 201.258 458.196 201.321 458.047C201.384 457.898 201.477 457.763 201.593 457.651C201.857 457.447 202.188 457.352 202.52 457.385C202.851 457.417 203.157 457.575 203.376 457.827L204.984 459.711C205.215 459.95 205.345 460.27 205.345 460.603C205.345 460.936 205.215 461.256 204.984 461.495C204.753 461.672 204.471 461.769 204.18 461.771V461.771ZM722.314 461.193C721.981 461.193 721.661 461.061 721.426 460.825C721.19 460.59 721.058 460.27 721.058 459.937C721.078 459.645 721.183 459.366 721.359 459.133L722.967 457.224C723.067 457.096 723.191 456.99 723.333 456.911C723.475 456.832 723.63 456.782 723.791 456.763C723.952 456.744 724.116 456.758 724.271 456.802C724.427 456.847 724.573 456.922 724.7 457.023C724.827 457.123 724.933 457.248 725.012 457.389C725.091 457.531 725.141 457.687 725.16 457.848C725.179 458.009 725.165 458.172 725.121 458.328C725.076 458.484 725.001 458.629 724.9 458.756L723.268 460.716C723.154 460.861 723.009 460.978 722.844 461.061C722.679 461.143 722.498 461.189 722.314 461.193V461.193ZM195.189 449.536C194.972 449.537 194.759 449.482 194.57 449.377C194.38 449.271 194.222 449.118 194.109 448.933L192.828 446.722C192.755 446.574 192.712 446.412 192.702 446.247C192.692 446.082 192.714 445.917 192.768 445.76C192.821 445.604 192.905 445.46 193.015 445.336C193.124 445.212 193.257 445.111 193.406 445.039C193.681 444.898 194 444.867 194.298 444.95C194.596 445.034 194.851 445.227 195.013 445.491C195.415 446.22 195.842 446.923 196.269 447.652C196.436 447.936 196.485 448.274 196.405 448.593C196.325 448.913 196.123 449.188 195.842 449.36C195.672 449.456 195.484 449.516 195.289 449.536H195.189ZM731.129 449.008C730.899 449.013 730.672 448.952 730.476 448.832C730.195 448.661 729.993 448.385 729.913 448.066C729.833 447.746 729.882 447.408 730.049 447.124C730.451 446.395 730.878 445.692 731.254 444.963C731.334 444.818 731.44 444.69 731.569 444.586C731.698 444.482 731.846 444.405 732.004 444.358C732.163 444.312 732.329 444.297 732.493 444.314C732.658 444.332 732.817 444.382 732.962 444.461C733.107 444.54 733.235 444.647 733.339 444.776C733.443 444.905 733.52 445.052 733.567 445.211C733.614 445.37 733.629 445.536 733.611 445.7C733.593 445.865 733.544 446.024 733.464 446.169C733.063 446.923 732.636 447.652 732.209 448.38C732.105 448.553 731.963 448.7 731.793 448.809C731.623 448.918 731.43 448.986 731.229 449.008H731.129ZM188.86 435.944C188.595 435.947 188.335 435.866 188.119 435.713C187.902 435.56 187.74 435.341 187.655 435.09C187.378 434.261 187.127 433.457 186.901 432.577C186.816 432.241 186.866 431.885 187.039 431.585C187.213 431.284 187.497 431.064 187.83 430.97C188.163 430.885 188.516 430.936 188.812 431.11C189.108 431.284 189.324 431.567 189.413 431.899C189.639 432.678 189.89 433.457 190.141 434.236C190.245 434.542 190.225 434.878 190.084 435.169C189.943 435.461 189.693 435.685 189.388 435.793V435.793C189.271 435.858 189.143 435.9 189.011 435.919L188.86 435.944ZM737.382 435.341H737.006C736.696 435.242 736.437 435.028 736.282 434.742C736.128 434.456 736.09 434.122 736.177 433.809C736.403 433.03 736.654 432.251 736.855 431.447C736.943 431.115 737.159 430.831 737.455 430.657C737.751 430.483 738.104 430.433 738.437 430.517C738.771 430.611 739.055 430.832 739.228 431.132C739.402 431.433 739.451 431.789 739.366 432.125V432.125L738.638 434.638C738.526 434.869 738.345 435.061 738.121 435.187C737.896 435.313 737.638 435.367 737.382 435.341ZM186.098 421.247C185.773 421.247 185.461 421.122 185.227 420.897C184.993 420.672 184.855 420.365 184.842 420.041V417.528C184.848 417.202 184.979 416.889 185.208 416.656C185.436 416.422 185.746 416.285 186.072 416.272C186.399 416.278 186.711 416.409 186.945 416.638C187.178 416.867 187.315 417.177 187.328 417.503V420.016C187.338 420.177 187.317 420.34 187.264 420.493C187.211 420.646 187.129 420.788 187.022 420.909C186.914 421.03 186.784 421.129 186.638 421.2C186.493 421.271 186.335 421.312 186.173 421.322V421.322L186.098 421.247ZM740.12 420.619C739.784 420.599 739.47 420.449 739.245 420.2C739.019 419.951 738.9 419.623 738.914 419.287V416.775C738.914 416.442 739.047 416.122 739.282 415.887C739.518 415.651 739.837 415.519 740.17 415.519C740.503 415.519 740.822 415.651 741.058 415.887C741.293 416.122 741.426 416.442 741.426 416.775V419.287C741.436 419.452 741.413 419.618 741.36 419.774C741.306 419.93 741.222 420.074 741.112 420.198C741.002 420.322 740.869 420.423 740.721 420.495C740.572 420.567 740.41 420.609 740.245 420.619H740.12ZM740.12 414.363C739.801 414.358 739.496 414.234 739.264 414.015C739.032 413.797 738.889 413.5 738.864 413.182C738.835 412.341 738.76 411.502 738.638 410.67C738.603 410.334 738.702 409.997 738.913 409.733C739.125 409.47 739.432 409.301 739.768 409.263C739.933 409.245 740.1 409.261 740.259 409.309C740.418 409.356 740.566 409.435 740.694 409.54C740.823 409.645 740.929 409.775 741.007 409.921C741.085 410.068 741.134 410.228 741.149 410.393C741.149 411.222 741.325 412.077 741.375 412.906C741.389 413.071 741.37 413.237 741.319 413.395C741.269 413.552 741.187 413.698 741.08 413.824C740.973 413.951 740.841 414.054 740.694 414.129C740.546 414.205 740.385 414.25 740.22 414.262V414.262L740.12 414.363ZM187.378 406.298H187.102C186.942 406.268 186.79 406.207 186.654 406.116C186.519 406.026 186.403 405.91 186.314 405.773C186.225 405.637 186.164 405.485 186.136 405.324C186.107 405.164 186.111 405 186.148 404.841C186.324 403.987 186.524 403.158 186.75 402.329C186.791 402.172 186.863 402.024 186.961 401.895C187.059 401.766 187.181 401.657 187.321 401.576C187.461 401.494 187.616 401.441 187.777 401.419C187.937 401.397 188.101 401.408 188.257 401.449V401.449C188.576 401.538 188.847 401.748 189.012 402.035C189.176 402.322 189.221 402.662 189.136 402.982C188.935 403.761 188.735 404.565 188.559 405.369C188.492 405.632 188.34 405.866 188.127 406.035C187.913 406.203 187.65 406.295 187.378 406.298V406.298ZM737.106 399.691C736.847 399.682 736.596 399.596 736.386 399.444C736.175 399.291 736.015 399.08 735.926 398.837C735.675 398.058 735.373 397.279 735.097 396.525C735.036 396.372 735.005 396.208 735.008 396.043C735.01 395.878 735.045 395.714 735.11 395.563C735.175 395.411 735.27 395.274 735.388 395.159C735.507 395.044 735.647 394.953 735.8 394.892C735.955 394.832 736.12 394.802 736.287 394.806C736.453 394.81 736.617 394.847 736.769 394.915C736.92 394.983 737.057 395.08 737.171 395.201C737.285 395.322 737.374 395.465 737.432 395.621C737.734 396.4 738.035 397.203 738.311 398.133C738.425 398.446 738.409 398.792 738.268 399.093C738.126 399.395 737.871 399.628 737.558 399.741C737.393 399.78 737.221 399.78 737.056 399.741L737.106 399.691ZM192.351 392.154C192.17 392.204 191.979 392.204 191.798 392.154C191.507 392.012 191.282 391.762 191.174 391.456C191.066 391.15 191.083 390.814 191.221 390.521C191.572 389.767 191.974 389.013 192.376 388.26C192.45 388.113 192.553 387.982 192.679 387.876C192.804 387.77 192.949 387.69 193.106 387.641C193.263 387.591 193.428 387.574 193.592 387.59C193.755 387.605 193.914 387.654 194.059 387.732C194.348 387.896 194.561 388.166 194.655 388.485C194.749 388.803 194.715 389.146 194.561 389.44L193.431 391.626C193.319 391.81 193.16 391.961 192.97 392.062C192.78 392.164 192.566 392.213 192.351 392.204V392.154ZM730.652 386.124C730.441 386.128 730.232 386.077 730.047 385.976C729.862 385.875 729.707 385.726 729.597 385.546C729.17 384.843 728.718 384.139 728.266 383.461C728.083 383.18 728.017 382.839 728.083 382.51C728.148 382.181 728.34 381.891 728.617 381.702C728.897 381.523 729.237 381.462 729.562 381.532C729.887 381.603 730.17 381.8 730.35 382.079C730.827 382.783 731.279 383.511 731.732 384.215C731.818 384.356 731.876 384.514 731.901 384.678C731.927 384.842 731.919 385.009 731.88 385.17C731.84 385.332 731.769 385.483 731.67 385.617C731.571 385.75 731.447 385.863 731.305 385.948V385.948C731.085 386.08 730.831 386.141 730.576 386.124H730.652ZM200.287 379.416C200.012 379.413 199.746 379.315 199.534 379.14C199.403 379.043 199.292 378.921 199.208 378.781C199.125 378.642 199.069 378.487 199.046 378.325C199.023 378.164 199.032 378 199.072 377.842C199.113 377.684 199.184 377.536 199.283 377.406L200.84 375.421C200.956 375.304 201.095 375.21 201.248 375.146C201.401 375.083 201.565 375.05 201.731 375.05C201.897 375.05 202.061 375.083 202.214 375.146C202.367 375.21 202.506 375.304 202.623 375.421C202.832 375.628 202.964 375.901 202.996 376.194C203.028 376.487 202.959 376.782 202.799 377.029L201.267 378.989C201.141 379.154 200.977 379.286 200.789 379.373C200.6 379.461 200.394 379.501 200.187 379.491L200.287 379.416ZM721.686 374.065C721.506 374.063 721.328 374.024 721.164 373.951C721 373.877 720.853 373.771 720.731 373.638C720.204 373.035 719.652 372.407 719.074 371.804C718.962 371.682 718.875 371.539 718.818 371.383C718.761 371.227 718.735 371.062 718.742 370.896C718.749 370.73 718.789 370.568 718.859 370.417C718.929 370.267 719.027 370.132 719.149 370.02C719.271 369.908 719.414 369.821 719.57 369.764C719.726 369.707 719.891 369.681 720.056 369.688C720.222 369.695 720.385 369.735 720.535 369.804C720.685 369.874 720.82 369.973 720.932 370.095V370.095L722.615 371.979C722.733 372.096 722.826 372.235 722.89 372.388C722.954 372.541 722.987 372.706 722.987 372.871C722.987 373.037 722.954 373.201 722.89 373.354C722.826 373.507 722.733 373.646 722.615 373.763C722.477 373.879 722.316 373.965 722.144 374.017C721.971 374.069 721.79 374.085 721.61 374.065H721.686ZM210.283 368.136C210.038 368.137 209.797 368.067 209.592 367.934C209.386 367.801 209.224 367.61 209.125 367.386C209.026 367.161 208.995 366.913 209.036 366.671C209.076 366.429 209.187 366.205 209.353 366.025C209.931 365.422 210.559 364.844 211.162 364.267C211.278 364.149 211.417 364.055 211.57 363.992C211.723 363.928 211.887 363.895 212.053 363.895C212.219 363.895 212.383 363.928 212.536 363.992C212.689 364.055 212.828 364.149 212.945 364.267V364.267C213.173 364.497 213.301 364.809 213.301 365.133C213.301 365.458 213.173 365.769 212.945 366V366L211.162 367.734C211.04 367.871 210.888 367.978 210.718 368.048C210.549 368.118 210.365 368.147 210.182 368.136H210.283ZM711.012 363.463C710.706 363.456 710.412 363.341 710.183 363.136L708.3 361.528C708.047 361.309 707.89 361 707.862 360.667C707.833 360.334 707.937 360.002 708.149 359.744C708.371 359.497 708.68 359.343 709.011 359.315C709.342 359.287 709.672 359.387 709.932 359.594L711.841 361.252C712.09 361.474 712.243 361.785 712.266 362.118C712.29 362.451 712.182 362.78 711.967 363.035C711.841 363.183 711.682 363.298 711.503 363.372C711.324 363.447 711.13 363.477 710.937 363.463H711.012ZM221.534 358.237C221.203 358.224 220.89 358.083 220.66 357.844C220.431 357.605 220.303 357.287 220.303 356.956C220.314 356.772 220.362 356.593 220.444 356.429C220.526 356.265 220.64 356.119 220.78 356.001L222.764 354.443C223.037 354.248 223.374 354.165 223.706 354.212C224.038 354.259 224.339 354.432 224.548 354.694C224.741 354.963 224.823 355.296 224.776 355.624C224.729 355.952 224.557 356.249 224.296 356.453L222.312 357.986C222.088 358.154 221.814 358.242 221.534 358.237V358.237ZM699.133 354.117C698.873 354.119 698.618 354.04 698.405 353.89L696.345 352.458C696.069 352.269 695.879 351.977 695.818 351.647C695.757 351.317 695.829 350.976 696.019 350.7C696.209 350.423 696.501 350.234 696.83 350.172C697.16 350.111 697.501 350.183 697.777 350.373L699.861 351.83C700.126 352.031 700.303 352.326 700.355 352.654C700.406 352.982 700.329 353.317 700.138 353.589C700.025 353.751 699.875 353.884 699.7 353.976C699.525 354.067 699.331 354.116 699.133 354.117V354.117ZM233.815 349.519C233.549 349.516 233.291 349.428 233.078 349.269C232.865 349.109 232.708 348.887 232.63 348.632C232.552 348.378 232.556 348.106 232.643 347.854C232.729 347.603 232.893 347.385 233.112 347.233V347.233L235.246 345.876C235.529 345.699 235.871 345.643 236.196 345.718C236.521 345.793 236.803 345.995 236.979 346.278C237.156 346.561 237.212 346.903 237.137 347.228C237.062 347.553 236.86 347.835 236.577 348.012L234.493 349.343C234.281 349.473 234.038 349.543 233.79 349.544L233.815 349.519ZM686.501 345.876C686.279 345.88 686.06 345.819 685.873 345.7L683.713 344.419C683.571 344.34 683.445 344.234 683.344 344.107C683.243 343.98 683.168 343.833 683.123 343.677C683.079 343.52 683.066 343.357 683.085 343.195C683.105 343.033 683.156 342.877 683.236 342.736C683.408 342.449 683.686 342.241 684.01 342.156C684.334 342.072 684.678 342.117 684.969 342.283L687.128 343.565C687.271 343.643 687.397 343.749 687.498 343.877C687.598 344.005 687.672 344.152 687.714 344.31C687.756 344.467 687.766 344.631 687.743 344.792C687.72 344.954 687.665 345.109 687.581 345.248V345.248C687.471 345.438 687.314 345.596 687.124 345.706C686.935 345.816 686.72 345.875 686.501 345.876V345.876ZM246.774 341.806C246.494 341.807 246.221 341.715 246 341.544C245.778 341.373 245.62 341.132 245.551 340.861C245.481 340.589 245.505 340.302 245.617 340.046C245.73 339.789 245.925 339.577 246.171 339.444V339.444L248.381 338.238C248.677 338.082 249.024 338.05 249.344 338.148C249.664 338.247 249.932 338.47 250.089 338.766C250.245 339.063 250.278 339.409 250.179 339.73C250.08 340.05 249.858 340.318 249.561 340.474L247.376 341.655C247.191 341.755 246.984 341.807 246.774 341.806ZM673.341 338.666C673.141 338.675 672.941 338.631 672.763 338.54L670.528 337.409C670.236 337.268 670.012 337.018 669.903 336.712C669.795 336.406 669.812 336.07 669.95 335.776V335.776C670.023 335.628 670.124 335.495 670.247 335.385C670.371 335.276 670.515 335.192 670.672 335.138C670.828 335.084 670.993 335.062 671.158 335.072C671.323 335.083 671.485 335.126 671.633 335.199L673.893 336.354C674.039 336.433 674.167 336.54 674.271 336.669C674.375 336.797 674.453 336.945 674.499 337.104C674.546 337.263 674.561 337.429 674.543 337.594C674.525 337.758 674.475 337.918 674.396 338.063C674.293 338.261 674.138 338.427 673.948 338.542C673.757 338.657 673.538 338.717 673.316 338.716L673.341 338.666ZM260.21 334.947C259.975 334.948 259.744 334.882 259.544 334.758C259.344 334.633 259.183 334.455 259.08 334.244C258.939 333.943 258.921 333.599 259.029 333.286C259.137 332.972 259.362 332.712 259.657 332.561V332.561L261.943 331.505C262.235 331.409 262.552 331.423 262.835 331.544C263.117 331.666 263.345 331.888 263.475 332.167C263.606 332.446 263.629 332.763 263.541 333.057C263.453 333.352 263.259 333.605 262.998 333.767L260.737 334.847C260.57 334.915 260.391 334.949 260.21 334.947V334.947ZM659.754 332.083C659.59 332.134 659.415 332.134 659.252 332.083L657.016 331.129C656.723 330.99 656.494 330.744 656.378 330.44C656.262 330.137 656.268 329.801 656.395 329.502C656.521 329.203 656.759 328.964 657.057 328.837C657.356 328.709 657.692 328.702 657.996 328.817L660.306 329.822C660.634 329.894 660.92 330.092 661.103 330.373C661.287 330.654 661.352 330.996 661.287 331.325C661.221 331.654 661.029 331.944 660.752 332.132C660.474 332.321 660.134 332.394 659.804 332.334L659.754 332.083ZM273.998 328.867C273.751 328.863 273.51 328.787 273.305 328.649C273.1 328.511 272.939 328.316 272.842 328.089C272.724 327.781 272.728 327.44 272.855 327.136C272.981 326.832 273.219 326.588 273.521 326.456L275.856 325.501C276.009 325.44 276.173 325.409 276.338 325.412C276.504 325.414 276.667 325.449 276.818 325.514C276.97 325.579 277.107 325.674 277.222 325.792C277.337 325.911 277.428 326.051 277.489 326.204C277.554 326.356 277.588 326.519 277.589 326.684C277.59 326.849 277.558 327.012 277.495 327.164C277.432 327.317 277.339 327.455 277.221 327.57C277.104 327.686 276.964 327.777 276.81 327.837L274.475 328.767C274.31 328.805 274.138 328.805 273.973 328.767L273.998 328.867ZM645.84 326.355H645.388L643.053 325.451C642.72 325.371 642.432 325.162 642.253 324.869C642.074 324.577 642.019 324.226 642.098 323.893C642.178 323.56 642.387 323.272 642.679 323.093C642.971 322.914 643.323 322.858 643.656 322.938H643.932L646.293 323.843C646.596 323.966 646.84 324.203 646.971 324.503C647.103 324.804 647.112 325.144 646.996 325.451C646.893 325.672 646.725 325.856 646.513 325.977C646.302 326.099 646.058 326.152 645.815 326.129L645.84 326.355ZM288.037 323.591C287.782 323.578 287.536 323.494 287.327 323.347C287.118 323.2 286.955 322.998 286.856 322.762C286.743 322.449 286.759 322.104 286.9 321.802C287.042 321.501 287.297 321.268 287.61 321.154L290.121 320.3C290.434 320.187 290.779 320.203 291.081 320.344C291.382 320.486 291.615 320.741 291.728 321.054V321.054C291.833 321.367 291.809 321.709 291.664 322.005C291.518 322.301 291.262 322.528 290.95 322.637L288.589 323.491C288.417 323.574 288.226 323.609 288.037 323.591V323.591ZM631.626 321.079H631.224L628.863 320.275C628.53 320.172 628.252 319.94 628.089 319.632C627.927 319.323 627.894 318.963 627.997 318.63C628.1 318.296 628.331 318.018 628.64 317.855C628.948 317.693 629.309 317.659 629.642 317.763L632.028 318.567C632.337 318.665 632.596 318.88 632.751 319.166C632.905 319.452 632.943 319.786 632.856 320.099C632.794 320.378 632.637 320.628 632.413 320.806C632.19 320.984 631.912 321.08 631.626 321.079V321.079ZM302.327 318.567C302.162 318.592 301.993 318.583 301.831 318.542C301.669 318.501 301.517 318.428 301.384 318.327C301.251 318.227 301.139 318.101 301.055 317.956C300.971 317.812 300.917 317.652 300.895 317.486C300.867 317.323 300.872 317.155 300.91 316.993C300.948 316.831 301.018 316.679 301.117 316.545C301.215 316.411 301.34 316.299 301.483 316.214C301.626 316.13 301.785 316.076 301.95 316.054L304.461 315.301C304.778 315.206 305.119 315.24 305.41 315.396C305.701 315.551 305.92 315.815 306.018 316.13C306.07 316.28 306.091 316.439 306.081 316.597C306.071 316.755 306.03 316.91 305.96 317.052C305.89 317.195 305.792 317.322 305.673 317.427C305.554 317.531 305.415 317.611 305.265 317.662L302.754 318.416C302.647 318.483 302.527 318.526 302.402 318.542L302.327 318.567ZM617.26 316.557C617.145 316.582 617.025 316.582 616.909 316.557L614.397 315.853C614.081 315.746 613.818 315.521 613.662 315.226C613.506 314.93 613.47 314.586 613.56 314.264C613.65 313.942 613.86 313.667 614.146 313.496C614.433 313.324 614.774 313.269 615.101 313.341L617.612 314.044C617.772 314.088 617.922 314.163 618.052 314.265C618.183 314.368 618.291 314.496 618.371 314.641C618.451 314.787 618.5 314.947 618.516 315.112C618.533 315.277 618.516 315.444 618.466 315.602C618.423 315.891 618.278 316.154 618.056 316.343C617.835 316.533 617.552 316.635 617.26 316.632V316.557ZM316.793 314.321C316.629 314.346 316.462 314.337 316.301 314.296C316.141 314.254 315.991 314.181 315.86 314.08C315.728 313.979 315.619 313.853 315.537 313.709C315.456 313.564 315.405 313.405 315.386 313.241C315.361 313.075 315.37 312.907 315.411 312.745C315.452 312.583 315.525 312.431 315.625 312.298C315.726 312.164 315.852 312.052 315.996 311.968C316.141 311.884 316.3 311.83 316.466 311.808L318.977 311.155C319.295 311.11 319.618 311.184 319.885 311.362C320.151 311.54 320.343 311.81 320.424 312.12C320.505 312.431 320.468 312.76 320.322 313.045C320.176 313.331 319.93 313.552 319.63 313.668L317.119 314.321C317.012 314.346 316.9 314.346 316.793 314.321ZM602.744 312.562H602.418L599.906 311.934C599.584 311.857 599.305 311.655 599.131 311.372C598.957 311.09 598.902 310.75 598.977 310.427C599.06 310.102 599.267 309.823 599.554 309.649C599.84 309.476 600.183 309.421 600.509 309.497L603.021 310.125C603.185 310.145 603.345 310.197 603.49 310.279C603.634 310.36 603.762 310.469 603.864 310.6C603.967 310.73 604.043 310.88 604.088 311.04C604.133 311.2 604.145 311.367 604.126 311.532C604.106 311.697 604.054 311.857 603.972 312.001C603.891 312.146 603.782 312.274 603.651 312.376C603.521 312.479 603.371 312.555 603.211 312.6C603.051 312.644 602.884 312.657 602.719 312.638L602.744 312.562ZM331.51 310.577C331.176 310.614 330.843 310.517 330.581 310.307C330.32 310.098 330.152 309.793 330.116 309.459C330.079 309.126 330.176 308.792 330.386 308.531C330.595 308.269 330.9 308.102 331.233 308.065L333.745 307.487C334.078 307.404 334.43 307.456 334.725 307.633C335.019 307.81 335.231 308.096 335.314 308.429C335.398 308.763 335.345 309.115 335.169 309.41C334.992 309.704 334.706 309.916 334.373 310V310L331.861 310.577H331.51ZM588.203 309.02H587.927L585.415 308.492C585.253 308.457 585.1 308.389 584.964 308.294C584.829 308.199 584.713 308.078 584.624 307.937C584.536 307.797 584.475 307.641 584.447 307.477C584.419 307.314 584.424 307.146 584.461 306.985C584.491 306.825 584.553 306.672 584.643 306.537C584.733 306.401 584.85 306.286 584.986 306.196C585.122 306.107 585.275 306.046 585.435 306.018C585.595 305.989 585.759 305.993 585.918 306.03L588.429 306.583C588.594 306.598 588.755 306.647 588.901 306.725C589.048 306.803 589.177 306.909 589.282 307.038C589.387 307.166 589.466 307.314 589.514 307.474C589.561 307.633 589.577 307.799 589.559 307.965C589.521 308.301 589.352 308.608 589.089 308.82C588.825 309.031 588.489 309.13 588.153 309.095L588.203 309.02ZM346.227 307.311C345.941 307.313 345.663 307.216 345.439 307.038C345.215 306.86 345.059 306.611 344.996 306.332C344.935 306.003 345.003 305.663 345.185 305.383C345.367 305.102 345.65 304.902 345.975 304.824L348.487 304.322C348.816 304.262 349.155 304.334 349.432 304.522C349.709 304.71 349.902 304.999 349.969 305.327C350.002 305.488 350.002 305.655 349.971 305.817C349.94 305.979 349.877 306.133 349.786 306.271C349.695 306.408 349.578 306.527 349.441 306.619C349.304 306.711 349.151 306.776 348.989 306.809V306.809L346.478 307.286L346.227 307.311ZM573.461 305.98H573.21L570.698 305.528C570.371 305.461 570.082 305.268 569.894 304.991C569.707 304.714 569.635 304.375 569.694 304.045C569.755 303.719 569.942 303.431 570.215 303.243C570.488 303.054 570.824 302.982 571.15 303.04L573.662 303.518C573.988 303.579 574.276 303.766 574.464 304.039C574.653 304.312 574.725 304.649 574.666 304.975C574.602 305.276 574.432 305.545 574.189 305.733C573.945 305.921 573.643 306.018 573.335 306.005L573.461 305.98ZM361.044 304.498C360.711 304.528 360.38 304.424 360.123 304.21C359.866 303.995 359.705 303.688 359.675 303.354C359.645 303.021 359.749 302.69 359.963 302.433C360.177 302.176 360.485 302.015 360.818 301.985L363.329 301.558C363.494 301.53 363.663 301.535 363.826 301.572C363.989 301.609 364.143 301.678 364.28 301.775C364.416 301.872 364.532 301.995 364.621 302.136C364.71 302.278 364.771 302.436 364.799 302.601C364.827 302.766 364.822 302.935 364.785 303.098C364.747 303.261 364.678 303.415 364.582 303.552C364.485 303.688 364.362 303.804 364.221 303.893C364.079 303.982 363.921 304.042 363.756 304.07L361.245 304.498H361.044ZM558.618 303.367H558.418L555.906 302.965C555.579 302.909 555.287 302.729 555.09 302.462C554.893 302.195 554.808 301.862 554.851 301.533C554.913 301.206 555.099 300.915 555.371 300.723C555.643 300.53 555.979 300.451 556.308 300.503L558.819 300.88C559.147 300.941 559.437 301.128 559.629 301.4C559.822 301.672 559.9 302.008 559.849 302.337C559.836 302.502 559.791 302.663 559.716 302.811C559.641 302.958 559.537 303.09 559.411 303.197C559.285 303.304 559.139 303.386 558.982 303.437C558.824 303.487 558.658 303.506 558.493 303.493L558.618 303.367ZM375.912 302.111C375.748 302.124 375.583 302.105 375.427 302.054C375.271 302.003 375.127 301.921 375.003 301.814C374.878 301.706 374.777 301.575 374.705 301.427C374.632 301.28 374.59 301.119 374.581 300.955C374.567 300.79 374.586 300.624 374.637 300.466C374.687 300.309 374.769 300.162 374.876 300.036C374.983 299.91 375.115 299.807 375.262 299.732C375.41 299.656 375.571 299.611 375.736 299.598L378.247 299.247C378.576 299.203 378.909 299.289 379.176 299.485C379.443 299.682 379.623 299.975 379.679 300.302V300.302C379.722 300.634 379.633 300.971 379.431 301.239C379.229 301.506 378.93 301.684 378.599 301.734L376.087 302.086L375.912 302.111ZM543.701 301.156H543.525L541.013 300.83C540.684 300.786 540.385 300.613 540.183 300.349C539.98 300.086 539.891 299.752 539.933 299.423C539.971 299.1 540.135 298.805 540.389 298.603C540.643 298.401 540.967 298.307 541.29 298.342V298.342L543.801 298.669C544.123 298.707 544.418 298.871 544.62 299.125C544.823 299.379 544.916 299.703 544.881 300.026C544.868 300.191 544.823 300.352 544.748 300.499C544.673 300.647 544.569 300.778 544.443 300.886C544.317 300.993 544.171 301.074 544.013 301.125C543.856 301.176 543.69 301.195 543.525 301.181V301.181L543.701 301.156ZM528.632 299.372L526.121 299.096C525.791 299.058 525.49 298.892 525.283 298.633C525.077 298.374 524.98 298.044 525.015 297.714C525.065 297.39 525.235 297.097 525.491 296.892C525.746 296.687 526.07 296.586 526.397 296.609L528.908 296.86C529.241 296.86 529.561 296.992 529.796 297.228C530.032 297.463 530.164 297.783 530.164 298.116C530.164 298.449 530.032 298.769 529.796 299.004C529.561 299.24 529.241 299.372 528.908 299.372H528.632ZM513.563 297.965L511.052 297.764C510.887 297.752 510.726 297.707 510.578 297.631C510.431 297.556 510.3 297.453 510.192 297.327C510.085 297.2 510.003 297.054 509.953 296.897C509.902 296.739 509.883 296.573 509.897 296.408V296.408C509.934 296.079 510.095 295.777 510.347 295.563C510.599 295.348 510.922 295.237 511.253 295.252L513.764 295.453C513.926 295.463 514.084 295.504 514.23 295.575C514.375 295.646 514.506 295.745 514.613 295.866C514.72 295.988 514.803 296.129 514.855 296.282C514.908 296.436 514.93 296.598 514.919 296.76C514.916 296.924 514.881 297.087 514.814 297.238C514.748 297.389 514.653 297.526 514.534 297.64C514.415 297.755 514.275 297.845 514.121 297.905C513.968 297.965 513.804 297.994 513.639 297.991V297.991L513.563 297.965ZM498.495 296.935H495.983C495.65 296.915 495.339 296.764 495.117 296.514C494.896 296.264 494.783 295.937 494.803 295.604C494.823 295.271 494.974 294.959 495.224 294.738C495.474 294.516 495.801 294.403 496.134 294.423L498.645 294.574C498.978 294.574 499.298 294.706 499.533 294.942C499.769 295.177 499.901 295.497 499.901 295.83C499.901 296.163 499.769 296.483 499.533 296.718C499.298 296.954 498.978 297.086 498.645 297.086L498.495 296.935ZM483.426 296.257H480.915C480.75 296.254 480.587 296.218 480.436 296.152C480.285 296.086 480.148 295.99 480.034 295.871C479.92 295.752 479.83 295.612 479.77 295.458C479.71 295.305 479.681 295.141 479.684 294.976V294.976C479.687 294.809 479.724 294.644 479.792 294.491C479.859 294.338 479.957 294.2 480.078 294.086C480.2 293.971 480.343 293.882 480.5 293.823C480.656 293.765 480.823 293.738 480.99 293.745H483.501C483.835 293.745 484.154 293.877 484.389 294.113C484.625 294.348 484.757 294.668 484.757 295.001C484.757 295.334 484.625 295.654 484.389 295.889C484.154 296.125 483.835 296.257 483.501 296.257H483.426ZM468.358 295.956H465.846C465.513 295.956 465.194 295.823 464.958 295.588C464.723 295.352 464.59 295.033 464.59 294.699C464.603 294.37 464.739 294.058 464.972 293.825C465.205 293.592 465.517 293.456 465.846 293.443H468.358C468.522 293.446 468.685 293.482 468.836 293.548C468.987 293.614 469.124 293.71 469.238 293.829C469.352 293.948 469.442 294.088 469.502 294.242C469.562 294.396 469.591 294.559 469.588 294.724V294.724C469.589 295.038 469.469 295.341 469.255 295.569C469.04 295.798 468.746 295.936 468.433 295.956H468.358Z" fill="#00B808"/>
<path d="M178.764 450.064C205.852 450.064 227.812 428.096 227.812 400.997C227.812 373.899 205.852 351.931 178.764 351.931C151.675 351.931 129.715 373.899 129.715 400.997C129.715 428.096 151.675 450.064 178.764 450.064Z" fill="white"/>
<path d="M173.189 394.792H202.874V406.298H173.239V415.016H187.378V421.573H173.189V431.623H160.179V421.573H154.077V414.916H160.079V370.296H203.451V381.753H174.469C173.364 381.753 173.013 381.979 173.038 383.185V393.234L173.189 394.792Z" fill="#00B808"/>
<path d="M310.464 338.565C337.552 338.565 359.512 316.597 359.512 289.499C359.512 262.4 337.552 240.432 310.464 240.432C283.375 240.432 261.415 262.4 261.415 289.499C261.415 316.597 283.375 338.565 310.464 338.565Z" fill="white"/>
<path d="M342.559 271.988L330.982 277.691C326.687 270.882 320.735 267.465 312.573 268.671C309.503 269.081 306.578 270.23 304.049 272.02C301.521 273.81 299.465 276.187 298.057 278.947H321.514V286.157H295.771V292.413H321.539V299.774H297.881C299.212 302.566 301.214 304.984 303.708 306.812C306.202 308.64 309.109 309.822 312.171 310.251C315.84 310.997 319.652 310.522 323.026 308.898C326.4 307.274 329.15 304.59 330.856 301.257L342.685 306.985C341.253 308.919 340.048 310.804 338.591 312.512C335.874 315.735 332.481 318.319 328.652 320.082C324.824 321.845 320.655 322.743 316.44 322.712C309.706 322.942 303.041 321.28 297.203 317.914C290.791 314.283 285.931 308.429 283.541 301.458C283.089 300.201 282.536 299.548 281.029 299.749C280.018 299.825 279.002 299.825 277.99 299.749V292.463H281.331V286.208H277.99V278.972H281.808C282.127 279.04 282.46 278.981 282.737 278.808C283.014 278.634 283.212 278.36 283.29 278.042V278.042C284.926 272.913 287.941 268.333 292.004 264.802C295.887 261.354 300.537 258.882 305.566 257.592C310.598 256.233 315.858 255.934 321.011 256.713C324.716 257.207 328.283 258.448 331.495 260.361C334.706 262.274 337.497 264.819 339.696 267.842C340.575 268.998 341.354 270.355 342.208 271.46C342.345 271.622 342.463 271.799 342.559 271.988Z" fill="#00B808"/>
<path d="M622.107 345.399C649.196 345.399 671.156 323.431 671.156 296.332C671.156 269.234 649.196 247.266 622.107 247.266C595.019 247.266 573.059 269.234 573.059 296.332C573.059 323.431 595.019 345.399 622.107 345.399Z" fill="white"/>
<path d="M604.05 328.892L599.479 319.697C600.635 319.019 601.815 318.416 602.92 317.687C606.026 315.937 608.411 313.142 609.651 309.799C610.262 307.482 609.993 305.02 608.897 302.89C608.897 302.638 608.219 302.463 607.843 302.463H597.395V294.624H603.548C602.543 292.79 601.489 291.082 600.685 289.248C599.55 286.721 599.091 283.942 599.356 281.184C599.62 278.427 600.597 275.785 602.192 273.52C603.871 270.961 606.061 268.777 608.624 267.104C611.186 265.431 614.067 264.305 617.085 263.797C623.607 262.349 630.427 263.137 636.448 266.033C640.196 267.947 643.232 271.011 645.112 274.776L634.413 280.881C633.563 279.601 632.632 278.375 631.626 277.213C630.305 275.891 628.645 274.957 626.829 274.514C625.013 274.071 623.111 274.135 621.329 274.701C618.988 275.185 616.935 276.579 615.621 278.576C614.307 280.574 613.84 283.011 614.322 285.353C614.474 286.112 614.728 286.847 615.075 287.539C616.102 289.811 617.311 291.996 618.692 294.071C618.855 294.246 619.054 294.384 619.275 294.475C619.496 294.566 619.734 294.609 619.973 294.599H632.781V302.412H621.982C622.262 304.74 621.905 307.101 620.949 309.242C619.994 311.383 618.476 313.226 616.557 314.572L618.416 314.346C621.888 314.023 625.38 314.721 628.461 316.356C630.311 317.25 632.373 317.613 634.417 317.405C636.461 317.196 638.408 316.424 640.039 315.175C640.518 314.796 640.964 314.376 641.37 313.919C643.178 317.511 644.936 321.054 646.745 324.697C645.09 326.438 643 327.704 640.692 328.365C635.673 329.998 630.266 329.998 625.247 328.365C623.787 327.869 622.354 327.299 620.952 326.656C618.989 325.786 616.859 325.355 614.711 325.394C612.564 325.433 610.451 325.941 608.521 326.883L604.05 328.892Z" fill="#00B808"/>
<path d="M711.238 516.917C738.327 516.917 760.286 494.949 760.286 467.851C760.286 440.752 738.327 418.785 711.238 418.785C684.149 418.785 662.19 440.752 662.19 467.851C662.19 494.949 684.149 516.917 711.238 516.917Z" fill="white"/>
<path d="M711.313 462.123L714.553 456.847C718.019 451.169 721.51 445.491 724.951 439.788C725.114 439.442 725.38 439.155 725.713 438.966C726.046 438.778 726.428 438.696 726.809 438.733H739.894C733.916 447.953 728.09 456.998 722.113 466.193H737.382V473.177H717.517V480.086H737.382V486.895H717.542V496.944H705.186V486.895H685.37V480.061H705.06V473.152H685.345V466.193H700.59L682.708 438.557H695.843C696.133 438.522 696.428 438.575 696.687 438.709C696.947 438.844 697.161 439.053 697.3 439.311C700.163 444.017 703.043 448.707 705.939 453.38L711.313 462.123Z" fill="#00B808"/>
<path d="M309.283 567.541C336.372 567.541 358.331 545.573 358.331 518.475C358.331 491.376 336.372 469.409 309.283 469.409C282.195 469.409 260.235 491.376 260.235 518.475C260.235 545.573 282.195 567.541 309.283 567.541Z" fill="white"/>
<path d="M305.19 486.895V478.604H314.859V487.121C321.812 487.961 328.328 490.957 333.493 495.688L325.658 506.039C322.644 503.198 318.965 501.159 314.959 500.11V511.516C317.47 512.37 319.982 513.073 322.317 514.028C326.5 515.154 330.086 517.853 332.327 521.56C334.569 525.267 335.292 529.698 334.347 533.926C333.978 536.505 333.041 538.97 331.604 541.142C330.166 543.315 328.264 545.141 326.034 546.488C322.969 548.338 319.544 549.512 315.989 549.93C315.034 549.93 314.859 550.407 314.884 551.261V558.271H305.19V550.407C302.678 549.879 300.292 549.452 297.957 548.824C293.138 547.594 288.713 545.156 285.098 541.739C283.566 540.332 283.591 540.282 284.797 538.574C286.881 535.584 288.991 532.62 291.201 529.504C294.892 533.576 299.767 536.388 305.139 537.544V524.58C302.377 523.65 299.69 522.897 297.103 521.842C294.794 521.095 292.673 519.857 290.887 518.213C289.101 516.57 287.692 514.559 286.756 512.32C285.89 510.113 285.488 507.752 285.574 505.383C285.66 503.015 286.234 500.689 287.258 498.552C288.652 495.78 290.663 493.366 293.136 491.493C295.609 489.62 298.478 488.339 301.523 487.749C302.678 487.397 303.833 487.221 305.19 486.895ZM314.934 537.368C316.379 537.217 317.724 536.558 318.731 535.51C319.738 534.462 320.341 533.09 320.434 531.64C320.434 529.479 317.922 527.695 314.934 527.092V537.368ZM305.064 508.928V499.456C303.729 499.487 302.456 500.022 301.501 500.955C300.545 501.887 299.979 503.147 299.916 504.481C299.916 506.516 302.126 508.4 305.064 508.903V508.928Z" fill="#00B808"/>
</g>
<defs>
<linearGradient id="paint0_linear" x1="413.834" y1="166.393" x2="544.657" y2="146.585" gradientUnits="userSpaceOnUse">
<stop offset="0.01"/>
<stop offset="0.13" stop-opacity="0.69"/>
<stop offset="0.25" stop-opacity="0.32"/>
<stop offset="1" stop-opacity="0"/>
</linearGradient>
<linearGradient id="paint1_linear" x1="48696.7" y1="-8456.92" x2="45043.2" y2="-4911.31" gradientUnits="userSpaceOnUse">
<stop offset="0.01"/>
<stop offset="0.13" stop-opacity="0.69"/>
<stop offset="0.25" stop-opacity="0.32"/>
<stop offset="1" stop-opacity="0"/>
</linearGradient>
<linearGradient id="paint2_linear" x1="8145.77" y1="3929.92" x2="7936.37" y2="3496.32" gradientUnits="userSpaceOnUse">
<stop offset="0.01"/>
<stop offset="0.13" stop-opacity="0.69"/>
<stop offset="0.25" stop-opacity="0.32"/>
<stop offset="1" stop-opacity="0"/>
</linearGradient>
<linearGradient id="paint3_linear" x1="34619" y1="-2465.23" x2="34436" y2="-3239.07" gradientUnits="userSpaceOnUse">
<stop offset="0.01"/>
<stop offset="0.13" stop-opacity="0.69"/>
<stop offset="0.25" stop-opacity="0.32"/>
<stop offset="1" stop-opacity="0"/>
</linearGradient>
<linearGradient id="paint4_linear" x1="343.212" y1="371.879" x2="529.561" y2="379.411" gradientUnits="userSpaceOnUse">
<stop/>
<stop offset="1" stop-opacity="0"/>
</linearGradient>
<linearGradient id="paint5_linear" x1="19904.3" y1="19633.5" x2="13923.6" y2="20274.7" gradientUnits="userSpaceOnUse">
<stop/>
<stop offset="1" stop-opacity="0"/>
</linearGradient>
<linearGradient id="paint6_linear" x1="12212.6" y1="-5814.88" x2="11792.2" y2="-5155.1" gradientUnits="userSpaceOnUse">
<stop offset="0.01"/>
<stop offset="0.13" stop-opacity="0.69"/>
<stop offset="0.25" stop-opacity="0.32"/>
<stop offset="1" stop-opacity="0"/>
</linearGradient>
<linearGradient id="paint7_linear" x1="70792" y1="-6772.16" x2="70606.8" y2="-7710.69" gradientUnits="userSpaceOnUse">
<stop/>
<stop offset="1" stop-opacity="0"/>
</linearGradient>
<clipPath id="clip0">
<rect width="939" height="671" fill="white"/>
</clipPath>
</defs>
</svg>
